<svg width="23" height="13" viewBox="0 0 23 13" fill="none" xmlns="http://www.w3.org/2000/svg">
<path d="M11.5363 8.21371L19.4256 0.336014C19.6423 0.119101 19.932 -0.000226974 20.241 -0.000226974C20.5501 -0.000226974 20.8397 0.119101 21.0567 0.336014L21.7477 1.0263C21.965 1.24287 22.0847 1.53238 22.0847 1.84088C22.0847 2.14939 21.965 2.43855 21.7477 2.65529L12.3548 12.0349C12.1371 12.2525 11.8461 12.3717 11.5368 12.3708C11.2262 12.3717 10.9356 12.2527 10.7176 12.0349L1.33387 2.66402C1.11647 2.44728 0.996805 2.15812 0.996805 1.84944C0.996805 1.54094 1.11647 1.25177 1.33387 1.03486L2.0248 0.344746C2.4745 -0.104318 3.20658 -0.104318 3.65611 0.344746L11.5363 8.21371Z" fill="#C09E3A"/>
</svg>
