<svg width="40" height="41" viewBox="0 0 40 41" fill="none" xmlns="http://www.w3.org/2000/svg">
<rect y="0.5" width="40" height="40" rx="20" fill="#C09E3A"/>
<g clip-path="url(#clip0_738_7030)">
<path d="M20.003 20.3567C19.4609 20.3507 19.0273 19.9111 19.0333 19.375C19.0393 18.839 19.4669 18.4054 20.003 18.4054C20.545 18.4054 20.9786 18.845 20.9786 19.3811C20.9786 19.7123 21.2497 19.9833 21.5809 19.9833C21.9122 19.9833 22.1832 19.7123 22.1832 19.3811C22.1832 18.4114 21.5388 17.5562 20.6052 17.2852V16.9057C20.6052 16.5745 20.3342 16.3035 20.003 16.3035C19.6717 16.3035 19.4007 16.5745 19.4007 16.9057V17.2852C18.2443 17.6164 17.5758 18.827 17.9071 19.9833C18.1781 20.9169 19.0273 21.5613 20.003 21.5613C20.545 21.5613 20.9786 22.0009 20.9786 22.537C20.9786 23.073 20.545 23.5126 20.003 23.5126C19.4609 23.5126 19.0273 23.073 19.0273 22.537C19.0273 22.2057 18.7563 21.9347 18.425 21.9347C18.0938 21.9347 17.8228 22.2057 17.8228 22.537C17.8228 23.5066 18.4672 24.3618 19.4007 24.6329V25.0123C19.4007 25.3435 19.6717 25.6146 20.003 25.6146C20.3342 25.6146 20.6052 25.3435 20.6052 25.0123V24.6329C21.7616 24.3016 22.4301 23.0911 22.0989 21.9347C21.8278 21.0012 20.9786 20.3567 20.003 20.3567Z" fill="white"/>
<path d="M32.4792 22.1977L32.4852 22.2064L32.4916 22.215C32.4917 22.2151 32.4939 22.2181 32.4961 22.2251C32.4983 22.2322 32.5 22.2416 32.5 22.2522C32.5 22.3171 32.4492 22.3605 32.3977 22.3605H30.085H29.6607L29.5917 22.7791C29.2147 25.064 28.0095 27.1185 26.1557 28.628L26.1551 28.6285C24.3647 30.0907 22.1079 30.9188 19.9789 30.9188C17.0729 30.9188 14.0929 29.422 12.212 26.9965C12.2 26.9783 12.1882 26.9627 12.1774 26.9495C12.1637 26.9258 12.1606 26.9023 12.1637 26.8818C12.1671 26.8584 12.1791 26.8355 12.2042 26.8171C12.2318 26.7969 12.2598 26.792 12.2837 26.7956C12.3072 26.799 12.3301 26.811 12.3485 26.8361L12.3483 26.8362L12.3555 26.8455C14.161 29.1894 17.1406 30.7082 19.9789 30.7082C22.0857 30.7082 24.2788 29.8849 26.0278 28.4643C27.7842 27.0376 28.9516 25.1155 29.3598 22.947L29.4713 22.3545H28.8684H26.8508C26.8495 22.3545 26.8308 22.3541 26.7935 22.3315C26.7487 22.2964 26.7371 22.2348 26.7707 22.1837C26.771 22.1832 26.7713 22.1828 26.7716 22.1823L29.5451 18.1574L29.5452 18.1575L29.5494 18.1511C29.5609 18.1339 29.5879 18.1147 29.6273 18.1147C29.6583 18.1147 29.6878 18.1278 29.7111 18.1598L32.4792 22.1977Z" fill="white" stroke="white"/>
<path d="M27.81 14.9544L27.8296 14.9799L27.8323 14.9826C27.8515 15.0253 27.8407 15.0764 27.7997 15.1086C27.7536 15.1408 27.6909 15.1326 27.6543 15.0838L27.6544 15.0838L27.6505 15.0787C25.845 12.7348 22.8654 11.216 20.0271 11.216C17.9203 11.216 15.7272 12.0394 13.9782 13.46C12.2218 14.8867 11.0544 16.8087 10.6462 18.9772L10.5347 19.5697H11.1376H13.1552C13.1968 19.5697 13.2301 19.5916 13.2467 19.6239C13.2683 19.6658 13.2603 19.7073 13.2455 19.7286L13.2455 19.7286L13.2434 19.7316L10.4669 23.7608L10.4669 23.7607L10.4626 23.7671C10.4512 23.7843 10.4241 23.8035 10.3848 23.8035C10.3536 23.8035 10.3239 23.7903 10.3006 23.7579L7.51984 19.7312L7.51428 19.7231L7.50841 19.7153C7.50828 19.7151 7.5061 19.7121 7.50389 19.7051C7.50165 19.698 7.5 19.6887 7.5 19.678C7.5 19.6132 7.55081 19.5697 7.60227 19.5697H9.91499H10.3392L10.4083 19.1511C10.7853 16.8664 11.9904 14.8121 13.8497 13.3027L13.8509 13.3018C15.6413 11.8396 17.8981 11.0115 20.0271 11.0115C22.9413 11.0115 25.93 12.5168 27.81 14.9544Z" fill="white" stroke="white"/>
</g>
<defs>
<clipPath id="clip0_738_7030">
<rect width="26" height="26" fill="white" transform="translate(7 8)"/>
</clipPath>
</defs>
</svg>
