<svg width="121" height="32" viewBox="0 0 121 32" fill="none" xmlns="http://www.w3.org/2000/svg">
<path fill-rule="evenodd" clip-rule="evenodd" d="M13.5 4.6V19H5.1C4.21634 19 3.5 19.7163 3.5 20.6V27.4C3.5 28.2837 4.21634 29 5.1 29H11.9C12.7837 29 13.5 28.2837 13.5 27.4V19H27.9C28.7837 19 29.5 18.2837 29.5 17.4V4.6C29.5 3.71634 28.7837 3 27.9 3H15.1C14.2163 3 13.5 3.71634 13.5 4.6Z" fill="#111010"/>
<path d="M38.5 25.5908V6.40921H43.2194C44.6649 6.40921 45.8129 6.84399 46.6632 7.71355C47.5136 8.57459 47.9387 9.71697 47.9387 11.1407V13.6982C47.9387 15.1134 47.5136 16.2558 46.6632 17.1253C45.8129 17.9949 44.6649 18.4297 43.2194 18.4297H41.9439V25.5908H38.5ZM41.9439 14.977H43.2194C43.6275 14.977 43.9422 14.8619 44.1632 14.6317C44.3843 14.393 44.4949 14.0818 44.4949 13.6982V11.1407C44.4949 10.757 44.3843 10.4501 44.1632 10.2199C43.9422 9.98125 43.6275 9.86189 43.2194 9.86189H41.9439V14.977Z" fill="#111010"/>
<path d="M47.7077 25.5908L51.3302 6.40921H55.0547L58.6006 25.5908H55.0802L54.6465 22.5985H51.6873L51.2281 25.5908H47.7077ZM52.1975 19.1458H54.1363L52.9628 11.0639H53.422L52.1975 19.1458Z" fill="#111010"/>
<path d="M61.4962 25.5908V16.8951L57.4911 6.40921H61.0115L63.7155 14.5166H62.7461L65.3737 6.40921H68.8941L64.94 16.8951V25.5908H61.4962Z" fill="#111010"/>
<path d="M74.1842 26C72.7982 26 71.6842 25.5652 70.8424 24.6957C70.0091 23.8261 69.5924 22.6837 69.5924 21.2685V20.5013H72.0159V21.2685C72.0159 21.9591 72.2115 22.5175 72.6026 22.9437C72.9938 23.3615 73.521 23.5703 74.1842 23.5703C74.8475 23.5703 75.3747 23.3615 75.7659 22.9437C76.157 22.5175 76.3526 21.9591 76.3526 21.2685V19.6573C76.3526 19.2651 76.3398 18.9582 76.3143 18.7366C76.2888 18.5064 76.2123 18.3231 76.0847 18.1867C75.9572 18.0503 75.7446 17.9224 75.447 17.8031C75.1494 17.6752 74.7285 17.526 74.1842 17.3555C73.0363 16.9889 72.1477 16.682 71.5184 16.4348C70.8892 16.179 70.4385 15.9105 70.1664 15.6292C69.8943 15.3393 69.7285 14.9642 69.669 14.5038C69.6179 14.0435 69.5924 13.4169 69.5924 12.624V10.7315C69.5924 9.30776 70.0091 8.16539 70.8424 7.30435C71.6842 6.43478 72.7982 6 74.1842 6C75.5788 6 76.6927 6.43478 77.5261 7.30435C78.3594 8.16539 78.7761 9.30776 78.7761 10.7315V11.4987H76.3526V10.7315C76.3526 10.0409 76.157 9.48679 75.7659 9.06905C75.3747 8.6428 74.8475 8.42967 74.1842 8.42967C73.521 8.42967 72.9938 8.6428 72.6026 9.06905C72.2115 9.48679 72.0159 10.0409 72.0159 10.7315V12.624C72.0159 13.0077 72.0286 13.3146 72.0541 13.5448C72.0882 13.7664 72.1647 13.9497 72.2837 14.0946C72.4113 14.231 72.6239 14.3589 72.9215 14.4783C73.2276 14.5976 73.6485 14.7468 74.1842 14.9258C75.3322 15.2924 76.2208 15.5993 76.85 15.8465C77.4793 16.0938 77.93 16.3623 78.2021 16.6522C78.4742 16.9335 78.6357 17.3043 78.6868 17.7647C78.7463 18.2251 78.7761 18.8559 78.7761 19.6573V21.2685C78.7761 22.6837 78.3594 23.8261 77.5261 24.6957C76.6927 25.5652 75.5788 26 74.1842 26Z" fill="#111010"/>
<path d="M90.3825 20.5013V21.2685C90.3825 22.6837 89.9659 23.8261 89.1325 24.6957C88.2992 25.5652 87.1853 26 85.7907 26C84.4047 26 83.2907 25.5652 82.4489 24.6957C81.6156 23.8261 81.1989 22.6837 81.1989 21.2685V10.7315C81.1989 9.30776 81.6156 8.16539 82.4489 7.30435C83.2907 6.43478 84.4047 6 85.7907 6C87.1853 6 88.2992 6.43478 89.1325 7.30435C89.9659 8.16539 90.3825 9.30776 90.3825 10.7315V11.4987H87.9591V10.7315C87.9591 10.0409 87.7635 9.48679 87.3724 9.06905C86.9812 8.6428 86.454 8.42967 85.7907 8.42967C85.1275 8.42967 84.6003 8.6428 84.2091 9.06905C83.818 9.48679 83.6224 10.0409 83.6224 10.7315V21.2685C83.6224 21.9591 83.818 22.5175 84.2091 22.9437C84.6003 23.3615 85.1275 23.5703 85.7907 23.5703C86.454 23.5703 86.9812 23.3615 87.3724 22.9437C87.7635 22.5175 87.9591 21.9591 87.9591 21.2685V20.5013H90.3825Z" fill="#111010"/>
<path d="M91.2341 25.5908L95.2137 6.40921H97.8158L101.757 25.5908H99.2698L98.5811 22.0358H94.4229L93.7214 25.5908H91.2341ZM94.8311 19.6061H98.1729L96.3362 9.79795H96.6933L94.8311 19.6061Z" fill="#111010"/>
<path d="M106.075 6.40921V23.1611H110.922V25.5908H103.651V6.40921H106.075Z" fill="#111010"/>
<path d="M120.5 6.40921V8.83887H115.143V14.5934H119.811V17.023H115.143V23.1611H120.5V25.5908H112.719V6.40921H120.5Z" fill="#111010"/>
</svg>
