<svg width="147" height="32" viewBox="0 0 147 32" fill="none" xmlns="http://www.w3.org/2000/svg">
<path fill-rule="evenodd" clip-rule="evenodd" d="M16 20C20.2342 20 23.6667 16.4183 23.6667 12C23.6667 7.58172 20.2342 4 16 4H8.33333V12C8.33333 16.4183 11.7658 20 16 20ZM27.5 12C27.5 18.6274 22.3513 24 16 24C9.64873 24 4.5 18.6274 4.5 12V0H16C22.3513 0 27.5 5.37258 27.5 12Z" fill="#111010"/>
<path fill-rule="evenodd" clip-rule="evenodd" d="M16 28C20.2342 28 23.6667 24.4183 23.6667 20C23.6667 15.5817 20.2342 12 16 12H8.33333V20C8.33333 24.4183 11.7658 28 16 28ZM27.5 20C27.5 26.6274 22.3513 32 16 32C9.64873 32 4.5 26.6274 4.5 20V8H16C22.3513 8 27.5 13.3726 27.5 20Z" fill="#111010"/>
<path d="M40.6432 26V6.92801H48.6816C49.9446 6.92801 51.0198 7.14988 51.9072 7.59361C52.8118 8.02028 53.503 8.63468 53.9808 9.43681C54.4758 10.2219 54.7232 11.1776 54.7232 12.304C54.7232 13.1744 54.4843 13.9936 54.0064 14.7616C53.5456 15.5125 52.8032 16.1355 51.7792 16.6304V15.0176C52.7179 15.376 53.4603 15.8197 54.0064 16.3488C54.5526 16.8779 54.9366 17.4667 55.1584 18.1152C55.3803 18.7637 55.4912 19.4464 55.4912 20.1632C55.4912 21.9893 54.8854 23.4229 53.6736 24.464C52.479 25.488 50.815 26 48.6816 26H40.6432ZM44.1248 22.928H49.04C49.9446 22.928 50.6614 22.6805 51.1904 22.1856C51.7366 21.6736 52.0096 20.9995 52.0096 20.1632C52.0096 19.3269 51.7366 18.6528 51.1904 18.1408C50.6614 17.6288 49.9446 17.3728 49.04 17.3728H44.1248V22.928ZM44.1248 14.3264H48.8608C49.5776 14.3264 50.1494 14.1216 50.576 13.712C51.0027 13.2853 51.216 12.7392 51.216 12.0736C51.216 11.408 51.0027 10.8789 50.576 10.4864C50.1494 10.0939 49.5776 9.89761 48.8608 9.89761H44.1248V14.3264ZM63.0664 26.3072C61.6328 26.3072 60.3784 25.9829 59.3032 25.3344C58.228 24.6859 57.3918 23.8069 56.7944 22.6976C56.1971 21.5883 55.8984 20.3595 55.8984 19.0112C55.8984 17.6117 56.1971 16.3744 56.7944 15.2992C57.4088 14.2069 58.2366 13.3451 59.2776 12.7136C60.3358 12.0821 61.5134 11.7664 62.8104 11.7664C63.9027 11.7664 64.8584 11.9456 65.6776 12.304C66.5139 12.6624 67.2222 13.1573 67.8024 13.7888C68.3827 14.4203 68.8264 15.1456 69.1336 15.9648C69.4408 16.7669 69.5944 17.6373 69.5944 18.576C69.5944 18.8149 69.5774 19.0624 69.5432 19.3184C69.5262 19.5744 69.4835 19.7963 69.4152 19.984H58.6632V17.424H67.5208L65.9336 18.6272C66.0872 17.8421 66.0446 17.1424 65.8056 16.528C65.5838 15.9136 65.2083 15.4272 64.6792 15.0688C64.1672 14.7104 63.5443 14.5312 62.8104 14.5312C62.1107 14.5312 61.4878 14.7104 60.9416 15.0688C60.3955 15.4101 59.9774 15.9221 59.6872 16.6048C59.4142 17.2704 59.3118 18.0811 59.38 19.0368C59.3118 19.8901 59.4227 20.6496 59.7128 21.3152C60.02 21.9637 60.4638 22.4672 61.044 22.8256C61.6414 23.184 62.324 23.3632 63.092 23.3632C63.86 23.3632 64.5086 23.2011 65.0376 22.8768C65.5838 22.5525 66.0104 22.1173 66.3176 21.5712L69.0312 22.9024C68.7582 23.568 68.3315 24.1568 67.7512 24.6688C67.171 25.1808 66.4798 25.5819 65.6776 25.872C64.8926 26.1621 64.0222 26.3072 63.0664 26.3072ZM75.8358 26.3072C74.351 26.3072 73.054 25.9573 71.9446 25.2576C70.8524 24.5408 70.1014 23.5765 69.6918 22.3648L72.2006 21.1616C72.559 21.9467 73.0539 22.5611 73.6854 23.0048C74.3339 23.4485 75.0507 23.6704 75.8358 23.6704C76.4502 23.6704 76.9366 23.5339 77.295 23.2608C77.6534 22.9877 77.8326 22.6293 77.8326 22.1856C77.8326 21.9125 77.7558 21.6907 77.6022 21.52C77.4657 21.3323 77.2694 21.1787 77.0134 21.0592C76.7745 20.9227 76.5099 20.8117 76.2198 20.7264L73.9414 20.0864C72.7638 19.7451 71.8678 19.2245 71.2534 18.5248C70.6561 17.8251 70.3574 16.9973 70.3574 16.0416C70.3574 15.1883 70.5708 14.4459 70.9974 13.8144C71.4412 13.1659 72.047 12.6624 72.815 12.304C73.6001 11.9456 74.4961 11.7664 75.503 11.7664C76.8171 11.7664 77.9777 12.0821 78.9846 12.7136C79.9915 13.3451 80.7083 14.2325 81.135 15.376L78.575 16.5792C78.3361 15.9477 77.935 15.4443 77.3718 15.0688C76.8086 14.6933 76.1771 14.5056 75.4774 14.5056C74.9142 14.5056 74.4705 14.6336 74.1462 14.8896C73.8219 15.1456 73.6598 15.4784 73.6598 15.888C73.6598 16.144 73.7281 16.3659 73.8646 16.5536C74.0011 16.7413 74.1889 16.8949 74.4278 17.0144C74.6838 17.1339 74.9739 17.2448 75.2982 17.3472L77.5254 18.0128C78.6689 18.3541 79.5478 18.8661 80.1622 19.5488C80.7937 20.2315 81.1094 21.0677 81.1094 22.0576C81.1094 22.8939 80.8875 23.6363 80.4438 24.2848C80.0001 24.9163 79.3857 25.4112 78.6006 25.7696C77.8155 26.128 76.8939 26.3072 75.8358 26.3072ZM88.4354 26.1536C86.8653 26.1536 85.645 25.7269 84.7746 24.8736C83.9213 24.0032 83.4946 22.7829 83.4946 21.2128V15.0688H81.0882V12.0736H81.3442C82.0269 12.0736 82.5559 11.8944 82.9314 11.536C83.3069 11.1776 83.4946 10.6571 83.4946 9.97441V8.89921H86.8482V12.0736H90.0482V15.0688H86.8482V21.0336C86.8482 21.4944 86.925 21.8869 87.0786 22.2112C87.2493 22.5355 87.5053 22.7829 87.8466 22.9536C88.205 23.1243 88.6573 23.2096 89.2034 23.2096C89.3229 23.2096 89.4594 23.2011 89.613 23.184C89.7837 23.1669 89.9458 23.1499 90.0994 23.1328V26C89.8605 26.0341 89.5874 26.0683 89.2802 26.1024C88.973 26.1365 88.6914 26.1536 88.4354 26.1536ZM91.3432 26V6.92801H99.3816C100.645 6.92801 101.72 7.14988 102.607 7.59361C103.512 8.02028 104.203 8.63468 104.681 9.43681C105.176 10.2219 105.423 11.1776 105.423 12.304C105.423 13.1744 105.184 13.9936 104.706 14.7616C104.246 15.5125 103.503 16.1355 102.479 16.6304V15.0176C103.418 15.376 104.16 15.8197 104.706 16.3488C105.253 16.8779 105.637 17.4667 105.858 18.1152C106.08 18.7637 106.191 19.4464 106.191 20.1632C106.191 21.9893 105.585 23.4229 104.374 24.464C103.179 25.488 101.515 26 99.3816 26H91.3432ZM94.8248 22.928H99.74C100.645 22.928 101.361 22.6805 101.89 22.1856C102.437 21.6736 102.71 20.9995 102.71 20.1632C102.71 19.3269 102.437 18.6528 101.89 18.1408C101.361 17.6288 100.645 17.3728 99.74 17.3728H94.8248V22.928ZM94.8248 14.3264H99.5608C100.278 14.3264 100.849 14.1216 101.276 13.712C101.703 13.2853 101.916 12.7392 101.916 12.0736C101.916 11.408 101.703 10.8789 101.276 10.4864C100.849 10.0939 100.278 9.89761 99.5608 9.89761H94.8248V14.3264ZM111.386 26.3072C110.413 26.3072 109.568 26.1451 108.851 25.8208C108.134 25.4965 107.58 25.0357 107.187 24.4384C106.795 23.824 106.598 23.1157 106.598 22.3136C106.598 21.5456 106.769 20.8629 107.11 20.2656C107.452 19.6512 107.981 19.1392 108.698 18.7296C109.414 18.32 110.319 18.0299 111.411 17.8592L115.968 17.1168V19.6768L112.051 20.3424C111.386 20.4619 110.891 20.6752 110.566 20.9824C110.242 21.2896 110.08 21.6907 110.08 22.1856C110.08 22.6635 110.259 23.0475 110.618 23.3376C110.993 23.6107 111.454 23.7472 112 23.7472C112.7 23.7472 113.314 23.6021 113.843 23.312C114.389 23.0048 114.807 22.5867 115.098 22.0576C115.405 21.5285 115.558 20.9483 115.558 20.3168V16.7328C115.558 16.1355 115.319 15.6405 114.842 15.248C114.381 14.8384 113.766 14.6336 112.998 14.6336C112.282 14.6336 111.642 14.8299 111.078 15.2224C110.532 15.5979 110.131 16.1013 109.875 16.7328L107.136 15.4016C107.409 14.6677 107.836 14.0363 108.416 13.5072C109.013 12.9611 109.713 12.5344 110.515 12.2272C111.317 11.92 112.188 11.7664 113.126 11.7664C114.27 11.7664 115.277 11.9797 116.147 12.4064C117.018 12.816 117.692 13.3963 118.17 14.1472C118.665 14.8811 118.912 15.7429 118.912 16.7328V26H115.738V23.6192L116.454 23.568C116.096 24.1653 115.669 24.6688 115.174 25.0784C114.679 25.4709 114.116 25.7781 113.485 26C112.853 26.2048 112.154 26.3072 111.386 26.3072ZM120.412 26V12.0736H123.56V14.8128L123.304 14.3264C123.629 13.4901 124.158 12.8587 124.892 12.432C125.643 11.9883 126.513 11.7664 127.503 11.7664C128.527 11.7664 129.431 11.9883 130.216 12.432C131.019 12.8757 131.641 13.4987 132.085 14.3008C132.529 15.0859 132.751 15.9989 132.751 17.04V26H129.397V17.8336C129.397 17.2192 129.278 16.6901 129.039 16.2464C128.8 15.8027 128.467 15.4613 128.04 15.2224C127.631 14.9664 127.144 14.8384 126.581 14.8384C126.035 14.8384 125.549 14.9664 125.122 15.2224C124.695 15.4613 124.363 15.8027 124.124 16.2464C123.885 16.6901 123.765 17.2192 123.765 17.8336V26H120.412ZM133.987 26V6.62081H137.34V19.3184L136.06 18.9344L142.614 12.0736H146.787L141.641 17.68L146.889 26H143.049L138.492 18.7808L140.489 18.3712L136.291 22.8768L137.34 20.8288V26H133.987Z" fill="#111010"/>
</svg>
