<svg width="115" height="32" viewBox="0 0 115 32" fill="none" xmlns="http://www.w3.org/2000/svg">
<path d="M16 9L3 15.5V22M16 15.5L9.5 18.75" stroke="#111010" stroke-width="2" stroke-linejoin="round"/>
<path d="M16 22.5L3 16V22.5L16 29V22.5Z" stroke="#111010" stroke-width="2" stroke-linejoin="round"/>
<path d="M29 16V9.5L16 3V9.5L22.5 12.75" stroke="#111010" stroke-width="2" stroke-linejoin="round"/>
<path d="M16 15.5L29 9V15.5L16 22V15.5Z" stroke="#111010" stroke-width="2" stroke-linejoin="round"/>
<path d="M38 21.753V6.83369H49.1575V9.34284H41.1106V13.0501H47.4444V15.4462H41.1106V19.2438H49.473V21.753H38Z" fill="#111010"/>
<path d="M50.3382 26.5V10.4505H53.1107L53.3135 14.0447L52.9303 13.6378C53.0656 12.9747 53.3135 12.387 53.6742 11.8746C54.0498 11.3622 54.5232 10.9629 55.0942 10.6765C55.6652 10.3751 56.3039 10.2244 57.0101 10.2244C57.9268 10.2244 58.7457 10.458 59.467 10.9252C60.1883 11.3924 60.7518 12.063 61.1576 12.937C61.5783 13.796 61.7887 14.8434 61.7887 16.0791C61.7887 17.3149 61.5783 18.3773 61.1576 19.2664C60.7368 20.1405 60.1583 20.8111 59.422 21.2783C58.7007 21.7454 57.8742 21.979 56.9425 21.979C55.9507 21.979 55.1243 21.7002 54.4631 21.1426C53.8169 20.585 53.3736 19.8843 53.1332 19.0404L53.4262 18.5657V26.5H50.3382ZM56.0409 19.6055C56.8674 19.6055 57.5135 19.3116 57.9794 18.7239C58.4602 18.1211 58.7007 17.247 58.7007 16.1017C58.7007 14.9564 58.4678 14.0899 58.0019 13.5022C57.5511 12.8994 56.9125 12.598 56.086 12.598C55.56 12.598 55.0942 12.7411 54.6885 13.0274C54.2978 13.2987 53.9897 13.6981 53.7643 14.2255C53.5389 14.7379 53.4262 15.3633 53.4262 16.1017C53.4262 16.81 53.5314 17.4354 53.7418 17.9779C53.9522 18.5054 54.2527 18.9123 54.6434 19.1986C55.0491 19.4699 55.515 19.6055 56.0409 19.6055Z" fill="#111010"/>
<path d="M64.4152 8.82293C63.769 8.82293 63.2882 8.6873 62.9726 8.41604C62.657 8.12971 62.4993 7.71529 62.4993 7.17277C62.4993 6.61518 62.657 6.20075 62.9726 5.92949C63.2882 5.64316 63.769 5.5 64.4152 5.5C65.0613 5.5 65.5422 5.64316 65.8578 5.92949C66.1733 6.20075 66.3311 6.61518 66.3311 7.17277C66.3311 7.71529 66.1733 8.12971 65.8578 8.41604C65.5422 8.6873 65.0613 8.82293 64.4152 8.82293ZM65.9479 10.4505V21.753H62.8599V10.4505H65.9479Z" fill="#111010"/>
<path d="M72.728 10.2244C73.7348 10.2244 74.5838 10.3751 75.2751 10.6765C75.9813 10.9629 76.5448 11.3622 76.9656 11.8746C77.4014 12.3719 77.7094 12.9295 77.8897 13.5474L75.0046 14.5872C74.8543 13.909 74.5989 13.3967 74.2382 13.0501C73.8776 12.7034 73.3892 12.5301 72.7731 12.5301C72.2021 12.5301 71.7137 12.6658 71.308 12.937C70.9022 13.1932 70.5942 13.5926 70.3838 14.1351C70.1734 14.6625 70.0683 15.3256 70.0683 16.1243C70.0683 16.923 70.1734 17.5861 70.3838 18.1136C70.6092 18.641 70.9248 19.0328 71.3305 19.289C71.7513 19.5452 72.2396 19.6733 72.7956 19.6733C73.2464 19.6733 73.6296 19.598 73.9452 19.4473C74.2608 19.2815 74.5162 19.0479 74.7116 18.7465C74.9219 18.4451 75.0647 18.0834 75.1398 17.6615L77.9348 18.5657C77.7695 19.2438 77.4615 19.8391 77.0107 20.3515C76.5599 20.8638 75.9813 21.2632 75.2751 21.5495C74.5688 21.8358 73.7498 21.979 72.8182 21.979C71.6611 21.979 70.6393 21.7454 69.7527 21.2783C68.8661 20.8111 68.1824 20.1405 67.7015 19.2664C67.2207 18.3924 66.9802 17.3375 66.9802 16.1017C66.9802 14.866 67.2207 13.8111 67.7015 12.937C68.1824 12.063 68.8586 11.3924 69.7302 10.9252C70.6017 10.458 71.601 10.2244 72.728 10.2244Z" fill="#111010"/>
<path d="M84.7876 6.83369C87.1168 6.83369 88.92 7.4817 90.1973 8.77772C91.4746 10.0587 92.1132 11.8972 92.1132 14.2933C92.1132 16.6744 91.4746 18.5129 90.1973 19.8089C88.92 21.1049 87.1168 21.753 84.7876 21.753H79.0399V6.83369H84.7876ZM84.6299 19.2664C86.0424 19.2664 87.1018 18.8445 87.808 18.0005C88.5293 17.1415 88.89 15.9058 88.89 14.2933C88.89 12.6808 88.5293 11.4526 87.808 10.6087C87.1018 9.74973 86.0424 9.32024 84.6299 9.32024H82.1504V19.2664H84.6299Z" fill="#111010"/>
<path d="M98.5445 21.979C97.3574 21.979 96.3205 21.7454 95.4339 21.2783C94.5624 20.8111 93.8861 20.1405 93.4053 19.2664C92.9244 18.3924 92.684 17.3375 92.684 16.1017C92.684 14.866 92.9244 13.8111 93.4053 12.937C93.8861 12.063 94.5548 11.3924 95.4114 10.9252C96.2829 10.458 97.2747 10.2244 98.3867 10.2244C99.5287 10.2244 100.498 10.458 101.294 10.9252C102.091 11.3773 102.699 12.0027 103.12 12.8014C103.541 13.585 103.751 14.4817 103.751 15.4914C103.751 15.7928 103.744 16.0791 103.729 16.3504C103.714 16.6216 103.691 16.8628 103.661 17.0737H94.6675V14.9263H102.309L100.821 15.4688C100.821 14.5194 100.603 13.7885 100.167 13.2761C99.7466 12.7637 99.1456 12.5075 98.3642 12.5075C97.7931 12.5075 97.2973 12.6432 96.8765 12.9144C96.4708 13.1857 96.1627 13.5926 95.9523 14.1351C95.742 14.6625 95.6368 15.3332 95.6368 16.1469C95.6368 16.9456 95.7495 17.6087 95.9749 18.1362C96.2153 18.6485 96.5459 19.0328 96.9667 19.289C97.4024 19.5452 97.9209 19.6733 98.5219 19.6733C99.1831 19.6733 99.7166 19.5452 100.122 19.289C100.528 19.0328 100.844 18.6787 101.069 18.2266L103.526 19.176C103.285 19.7637 102.917 20.2686 102.421 20.6905C101.941 21.1125 101.362 21.4365 100.686 21.6625C100.025 21.8735 99.3109 21.979 98.5445 21.979Z" fill="#111010"/>
<path d="M111.799 10.4505H115L110.717 21.753H107.156L102.873 10.4505H106.187L108.959 19.3794L111.799 10.4505Z" fill="#111010"/>
</svg>
