<svg width="136" height="32" viewBox="0 0 136 32" fill="none" xmlns="http://www.w3.org/2000/svg">
<g clip-path="url(#clip0_738_7258)">
<path d="M32.5 0H18.4314C17.7186 0 17.3617 0.861712 17.8657 1.36568L31.1343 14.6343C31.6383 15.1383 32.5 14.7814 32.5 14.0686V0Z" fill="#111010"/>
<path d="M24.5 8H5.24943C3.84034 8 3.11929 9.6897 4.09425 10.707L21.7448 29.125C22.7425 30.1661 24.5 29.4599 24.5 28.018V8Z" fill="#111010"/>
<path fill-rule="evenodd" clip-rule="evenodd" d="M24.5001 18.6353V8H14.6423C14.1765 10.6978 14.8472 13.6244 17.0001 16C19.0966 18.3134 21.9097 19.0711 24.5001 18.6353Z" fill="#111010"/>
</g>
<path d="M38.5 19.5311C38.5 22.751 41.0465 24.9419 45.0621 24.9419C49.0451 24.9419 51.8202 22.8838 51.8202 19.5643C51.8202 17.0415 50.449 15.7801 47.7392 15.1494L44.8336 14.4523C43.4624 14.1203 42.7442 13.5228 42.7442 12.5934C42.7442 11.3651 43.6583 10.6349 45.2254 10.6349C46.7598 10.6349 47.6739 11.5311 47.7066 12.9253H51.4937C51.4611 9.73859 49.0125 7.61411 45.3886 7.61411C41.6668 7.61411 38.9897 9.53942 38.9897 12.7593C38.9897 15.3817 40.3936 16.7759 43.2992 17.4398L46.2048 18.1369C47.6413 18.4689 48.0657 19.0664 48.0657 19.8963C48.0657 21.0913 47.0536 21.8548 45.1927 21.8548C43.3645 21.8548 42.3198 20.9585 42.2871 19.5311H38.5Z" fill="#111010"/>
<path d="M58.2971 24.5104V11.4979H61.4313V8.11203H58.2971V3H54.3141V8.11203H51.2126V11.4979H54.3141V24.5104H58.2971Z" fill="#111010"/>
<path d="M66.5705 24.9419C69.0843 24.9419 71.2717 23.7801 71.9573 22.0871L72.2511 24.5104H75.7444V14.5519C75.7444 10.0041 73.0673 7.61411 68.7252 7.61411C64.3504 7.61411 61.4775 9.93776 61.4775 13.4896H64.8728C64.8728 11.7635 66.1787 10.7676 68.5293 10.7676C70.5534 10.7676 71.8593 11.6639 71.8593 13.888V14.2531L67.0275 14.6183C63.2078 14.917 61.053 16.8091 61.053 19.8299C61.053 22.917 63.1425 24.9419 66.5705 24.9419ZM67.8764 21.888C66.0807 21.888 65.1013 21.1577 65.1013 19.6639C65.1013 18.3361 66.0481 17.5062 68.5293 17.2739L71.892 17.0083V17.8714C71.892 20.3942 70.3249 21.888 67.8764 21.888Z" fill="#111010"/>
<path d="M87.7375 8.04564C87.0846 7.87967 86.5295 7.81328 85.9745 7.81328C83.8198 7.81328 82.2854 8.90871 81.5998 10.5353L81.3712 8.14523H77.6168V24.5104H81.5998V16.5436C81.5998 13.3568 83.3954 11.7967 86.2684 11.7967H87.7375V8.04564Z" fill="#111010"/>
<path d="M87.1524 19.5311C87.1524 22.751 89.6989 24.9419 93.7145 24.9419C97.6975 24.9419 100.473 22.8838 100.473 19.5643C100.473 17.0415 99.1014 15.7801 96.3916 15.1494L93.486 14.4523C92.1148 14.1203 91.3966 13.5228 91.3966 12.5934C91.3966 11.3651 92.3107 10.6349 93.8778 10.6349C95.4122 10.6349 96.3263 11.5311 96.359 12.9253H100.146C100.113 9.73859 97.6649 7.61411 94.041 7.61411C90.3192 7.61411 87.6421 9.53942 87.6421 12.7593C87.6421 15.3817 89.046 16.7759 91.9516 17.4398L94.8572 18.1369C96.2937 18.4689 96.7181 19.0664 96.7181 19.8963C96.7181 21.0913 95.706 21.8548 93.8451 21.8548C92.0169 21.8548 90.9722 20.9585 90.9395 19.5311H87.1524Z" fill="#111010"/>
<path d="M112.402 8.11203V16.7095C112.402 19.8299 111.194 21.3237 108.68 21.3237C106.46 21.3237 105.252 20.0622 105.252 16.9419V8.11203H101.269V18.3693C101.269 22.3859 103.456 24.9419 107.178 24.9419C109.333 24.9419 111.422 23.8797 112.402 22.3195L112.695 24.5104H116.385V8.11203H112.402Z" fill="#111010"/>
<path d="M118.458 29H122.441V22.3195C123.453 23.9793 125.543 24.9419 127.958 24.9419C132.758 24.9419 135.5 21.2241 135.5 16.112C135.5 10.9668 132.496 7.61411 127.958 7.61411C125.51 7.61411 123.388 8.70954 122.408 10.6017L122.147 8.11203H118.458V29ZM122.474 16.3112C122.474 13.3568 124.269 11.2988 127.012 11.2988C129.819 11.2988 131.484 13.39 131.484 16.3112C131.484 19.2324 129.819 21.2905 127.012 21.2905C124.269 21.2905 122.474 19.2656 122.474 16.3112Z" fill="#111010"/>
<defs>
<clipPath id="clip0_738_7258">
<rect width="32" height="32" fill="white" transform="translate(0.5)"/>
</clipPath>
</defs>
</svg>
