<svg width="165" height="32" viewBox="0 0 165 32" fill="none" xmlns="http://www.w3.org/2000/svg">
<path fill-rule="evenodd" clip-rule="evenodd" d="M6 3V13H9V3H6ZM15 3V18H18V3H15ZM24 13V3H27V13H24ZM16.5 29C10.031 29 4.5891 24.3337 3 18H6.54663C8.02066 22.3197 11.9207 25.4063 16.5 25.4063C21.0793 25.4063 24.9793 22.3197 26.4534 18H30C28.4109 24.3337 22.969 29 16.5 29Z" fill="#111010"/>
<path d="M42.0602 23V11.9589H38V9H49.6994V11.9589H45.6393V23H42.0602Z" fill="#111010"/>
<path d="M54.3658 23V9H64.0063V11.8199H57.8102V14.4809H63.6214V17.2809H57.8102V20.1801H64.0063V23H54.3658Z" fill="#111010"/>
<path d="M79.2186 23L78.0063 20.1007H72.0026L70.7903 23H67.2305L73.5613 9H76.3707L82.7207 23H79.2186ZM73.1379 17.3603H76.871L75.0044 12.8723L73.1379 17.3603Z" fill="#111010"/>
<path d="M97.6992 9H100.432V23H97.3528V15.6525L94.7359 20.6766H92.4652L89.8675 15.7716L89.8483 23H86.7695V9H89.5596L93.639 16.9631L97.6992 9Z" fill="#111010"/>
<path d="M109.196 23V11.9589H105.136V9H116.835V11.9589H112.775V23H109.196Z" fill="#111010"/>
<path d="M130.068 23L128.856 20.1007H122.852L121.64 23H118.08L124.411 9H127.22L133.57 23H130.068ZM123.988 17.3603H127.721L125.854 12.8723L123.988 17.3603Z" fill="#111010"/>
<path d="M137.581 23V9H141.121V20.0411H146.894V23H137.581Z" fill="#111010"/>
<path d="M165 23H160.805L155.34 16.6652V23H151.8V9H155.34V15.017L160.651 9H164.788L158.804 15.6525L165 23Z" fill="#111010"/>
</svg>
