<svg width="139" height="32" viewBox="0 0 139 32" fill="none" xmlns="http://www.w3.org/2000/svg">
<g clip-path="url(#clip0_738_7277)">
<path d="M25.1666 24.653C26.4553 25.9492 26.4462 28.0538 25.1462 29.3538L24.1969 30.3031C22.897 31.603 20.7984 31.606 19.5097 30.3098L16.2028 26.9836L21.8596 21.3267L25.1666 24.653Z" fill="#111010"/>
<path d="M2.85466 23.69C1.57464 24.9898 1.58185 27.0819 2.8708 28.3708L3.81516 29.3152C5.11278 30.6128 7.21586 30.6039 8.50449 29.2955L14.5884 23.1179L8.96055 17.4901L2.85466 23.69Z" fill="#111010"/>
<path fill-rule="evenodd" clip-rule="evenodd" d="M30.6302 0.954729C29.3678 -0.317484 27.3213 -0.318354 26.0578 0.952786L14.1569 12.9258L7.75571 6.47497C6.74376 5.45516 5.10315 5.45516 4.0912 6.47497L2.2589 8.3214C1.24703 9.3412 1.24703 10.9945 2.2589 12.0143L14.1523 24L16.3614 21.7738C16.3932 21.7442 16.4247 21.7138 16.4556 21.6826L31.5507 6.49608C32.8157 5.22343 32.8165 3.15804 31.5526 1.88431L30.6302 0.954729Z" fill="#111010"/>
</g>
<path d="M52.4719 23.7967H41.8778V16.967H51.3357V14.0659H41.8778V7.9011H52.257V5H38.5V26.6978H52.4719V23.7967Z" fill="#111010"/>
<path d="M55.9567 26.6978L60.2558 20.3214L64.6162 26.6978H68.1783L62.4667 18.5989L67.8098 10.6813H64.4627L60.44 16.7253L56.4173 10.6813H52.8246L58.2291 18.5082L52.4561 26.6978H55.9567Z" fill="#111010"/>
<path d="M77.35 26.6978C84.1671 26.6978 88.7118 22.044 88.7118 15.728C88.7118 9.41209 84.3206 5 77.35 5H68.7519V26.6978H77.35ZM74.5556 9.92583H77.0122C80.7892 9.92583 82.7545 11.8901 82.7545 15.728C82.7545 19.8077 80.8507 21.772 77.0122 21.772H74.5556V9.92583Z" fill="#111010"/>
<path d="M96.9582 27C101.841 27 105.587 23.2225 105.587 18.5687C105.587 13.9148 101.841 10.1374 96.9582 10.1374C92.0757 10.1374 88.3294 13.9148 88.3294 18.5687C88.3294 23.2225 92.0757 27 96.9582 27ZM96.9582 22.3764C95.3307 22.3764 93.7953 21.1071 93.7953 18.5687C93.7953 16.0302 95.3307 14.7912 96.9582 14.7912C98.5857 14.7912 100.121 16.0302 100.121 18.5687C100.121 21.1071 98.5857 22.3764 96.9582 22.3764Z" fill="#111010"/>
<path d="M111.328 18.1456C111.328 15.6978 112.494 14.7912 113.784 14.7912C115.381 14.7912 116.118 15.9093 116.118 17.9643V26.6978H121.369V16.2418C121.369 12.283 119.066 10.1374 115.811 10.1374C113.723 10.1374 112.187 10.9835 110.898 12.4038V10.4396H106.077V26.6978H111.328V18.1456Z" fill="#111010"/>
<path d="M130.212 26.9698C134.327 26.9698 137.244 24.8846 138.257 21.1676H133.006C132.545 22.3462 131.563 22.9506 130.089 22.9506C128.4 22.9506 127.417 21.9231 127.141 19.8681H138.349C139.301 14.5192 135.647 10.1374 130.181 10.1374C125.268 10.1374 121.706 13.6731 121.706 18.5385C121.706 23.5852 125.114 26.9698 130.212 26.9698ZM130.058 13.9451C131.624 13.9451 132.668 15.0027 132.73 16.6346H127.202C127.571 14.8214 128.492 13.9451 130.058 13.9451Z" fill="#111010"/>
<defs>
<clipPath id="clip0_738_7277">
<rect width="31.9999" height="32" fill="white" transform="translate(0.5)"/>
</clipPath>
</defs>
</svg>
