<svg width="132" height="32" viewBox="0 0 132 32" fill="none" xmlns="http://www.w3.org/2000/svg">
<path fill-rule="evenodd" clip-rule="evenodd" d="M32 15.5L21.5 26L16.8721 21.3721L22 16L16.3837 10.1163L21.5 5L32 15.5ZM15.7506 10.7494L11 15.5L16.239 20.739L20.7626 16L15.7506 10.7494Z" fill="#111010"/>
<path d="M10.6667 6.23744L1.25708 15.5L10.6667 24.7626L15.3715 20.1313L16 20.75L10.6667 26L0 15.5L10.6667 5L16 10.25L15.3715 10.8687L10.6667 6.23744Z" fill="#111010"/>
<path d="M40.3224 21.13C39.6826 21.13 39.1324 20.9083 38.6718 20.465C38.2239 20.009 38 19.4643 38 18.831V12.409C38 11.7757 38.2239 11.2373 38.6718 10.794C39.1324 10.338 39.6826 10.11 40.3224 10.11H47.0016C47.6542 10.11 48.2044 10.338 48.6522 10.794C49.1129 11.2373 49.3432 11.7757 49.3432 12.409V18.831C49.3432 19.4643 49.1129 20.009 48.6522 20.465C48.2044 20.9083 47.6542 21.13 47.0016 21.13H40.3224ZM40.3224 19.572H47.0016C47.2063 19.572 47.3791 19.5023 47.5198 19.363C47.6734 19.211 47.7501 19.0337 47.7501 18.831V12.409C47.7501 12.2063 47.6734 12.0353 47.5198 11.896C47.3791 11.744 47.2063 11.668 47.0016 11.668H40.3224C40.1176 11.668 39.9385 11.744 39.785 11.896C39.6442 12.0353 39.5738 12.2063 39.5738 12.409V18.831C39.5738 19.0337 39.6442 19.211 39.785 19.363C39.9385 19.5023 40.1176 19.572 40.3224 19.572Z" fill="#111010"/>
<path d="M56.6114 21.13L50.4696 10.11H52.3121L57.5327 19.61L62.7532 10.11H64.5958L58.4347 21.13H56.6114Z" fill="#111010"/>
<path d="M67.9501 21.13C67.3103 21.13 66.7601 20.9083 66.2995 20.465C65.8516 20.009 65.6277 19.4643 65.6277 18.831V12.409C65.6277 11.7757 65.8516 11.2373 66.2995 10.794C66.7601 10.338 67.3103 10.11 67.9501 10.11H74.6293C75.2819 10.11 75.8321 10.338 76.2799 10.794C76.7406 11.2373 76.9709 11.7757 76.9709 12.409V16.399H67.2015V18.831C67.2015 19.0337 67.2719 19.211 67.4127 19.363C67.5662 19.5023 67.7453 19.572 67.9501 19.572H76.9709V21.13H67.9501ZM67.2015 14.841H75.3778V12.409C75.3778 12.2063 75.3011 12.0353 75.1475 11.896C75.0068 11.744 74.834 11.668 74.6293 11.668H67.9501C67.7453 11.668 67.5662 11.744 67.4127 11.896C67.2719 12.0353 67.2015 12.2063 67.2015 12.409V14.841Z" fill="#111010"/>
<path d="M78.8422 21.13V12.409C78.8422 11.7757 79.0661 11.2373 79.514 10.794C79.9746 10.338 80.5248 10.11 81.1646 10.11H87.4216V11.668H81.1646C80.9599 11.668 80.7807 11.744 80.6272 11.896C80.4864 12.0353 80.4161 12.2063 80.4161 12.409V21.13H78.8422Z" fill="#111010"/>
<path d="M90.9861 21.13C90.3463 21.13 89.7961 20.9083 89.3355 20.465C88.8876 20.009 88.6637 19.4643 88.6637 18.831V6.5H90.2376V18.831C90.2376 19.0337 90.3079 19.211 90.4487 19.363C90.6022 19.5023 90.7814 19.572 90.9861 19.572H92.867V21.13H90.9861Z" fill="#111010"/>
<path d="M96.5904 21.13C95.9506 21.13 95.4004 20.9083 94.9398 20.465C94.4919 20.009 94.268 19.4643 94.268 18.831V14.841H104.018V12.409C104.018 12.2063 103.941 12.0353 103.788 11.896C103.647 11.744 103.474 11.668 103.27 11.668H94.268V10.11H103.27C103.922 10.11 104.472 10.338 104.92 10.794C105.381 11.2373 105.611 11.7757 105.611 12.409V21.13H96.5904ZM96.5904 19.572H104.018V16.399H95.8418V18.831C95.8418 19.0337 95.9122 19.211 96.053 19.363C96.2065 19.5023 96.3856 19.572 96.5904 19.572Z" fill="#111010"/>
<path d="M109.456 25.5V23.923H116.404C116.609 23.923 116.782 23.847 116.922 23.695C117.076 23.5557 117.153 23.3847 117.153 23.182V21.13H109.725C109.085 21.13 108.535 20.9083 108.074 20.465C107.627 20.009 107.403 19.4643 107.403 18.831V10.148H108.976V18.831C108.976 19.0337 109.047 19.211 109.188 19.363C109.341 19.5023 109.52 19.572 109.725 19.572H116.404C116.609 19.572 116.782 19.5023 116.922 19.363C117.076 19.211 117.153 19.0337 117.153 18.831V10.148H118.727V23.182C118.727 23.828 118.503 24.3727 118.055 24.816C117.607 25.272 117.057 25.5 116.404 25.5H109.456Z" fill="#111010"/>
<path d="M122.979 21.13C122.339 21.13 121.789 20.9083 121.329 20.465C120.881 20.009 120.657 19.4643 120.657 18.831V18.679H122.231V18.831C122.231 19.0337 122.301 19.211 122.442 19.363C122.595 19.5023 122.774 19.572 122.979 19.572H129.658C129.863 19.572 130.036 19.5023 130.177 19.363C130.33 19.211 130.407 19.0337 130.407 18.831V17.14C130.407 16.9373 130.33 16.7663 130.177 16.627C130.036 16.475 129.863 16.399 129.658 16.399H122.979C122.339 16.399 121.789 16.1773 121.329 15.734C120.881 15.278 120.657 14.7333 120.657 14.1V12.409C120.657 11.7757 120.881 11.2373 121.329 10.794C121.789 10.338 122.339 10.11 122.979 10.11H129.658C130.311 10.11 130.861 10.338 131.309 10.794C131.77 11.2373 132 11.7757 132 12.409V12.561H130.407V12.409C130.407 12.2063 130.33 12.0353 130.177 11.896C130.036 11.744 129.863 11.668 129.658 11.668H122.979C122.774 11.668 122.595 11.744 122.442 11.896C122.301 12.0353 122.231 12.2063 122.231 12.409V14.1C122.231 14.3027 122.301 14.48 122.442 14.632C122.595 14.7713 122.774 14.841 122.979 14.841H129.658C130.311 14.841 130.861 15.069 131.309 15.525C131.77 15.9683 132 16.5067 132 17.14V18.831C132 19.4643 131.77 20.009 131.309 20.465C130.861 20.9083 130.311 21.13 129.658 21.13H122.979Z" fill="#111010"/>
</svg>
