<svg width="46" height="45" viewBox="0 0 46 45" fill="none" xmlns="http://www.w3.org/2000/svg">
<path d="M32.8936 30.7384V23.3463C32.8936 19.3854 30.7793 17.5428 27.9604 17.5428C25.6862 17.5428 24.667 18.7937 24.0988 19.6722V17.8462H19.8138C19.8703 19.0557 19.8138 30.7384 19.8138 30.7384H24.0988V23.538C24.0988 23.1532 24.1264 22.7684 24.2408 22.4939C24.5498 21.7244 25.2545 20.9272 26.4378 20.9272C27.9893 20.9272 28.6086 22.1092 28.6086 23.8414V30.7384H32.8936ZM15.2999 16.0865C16.7935 16.0865 17.7244 15.0962 17.7244 13.8578C17.6968 12.5931 16.7935 11.6318 15.3274 11.6318C13.8614 11.6318 12.9043 12.5931 12.9043 13.8578C12.9043 15.0949 13.8352 16.0865 15.2723 16.0865H15.2999ZM17.4417 30.7384V17.8462H13.1581V30.7384H17.4417Z" fill="white" fill-opacity="0.5"/>
<path d="M22.9012 1.87719C34.3081 1.87719 43.5883 11.1574 43.5883 22.5643C43.5883 33.9712 34.3081 43.2514 22.9012 43.2514C11.4943 43.2514 2.2141 33.9712 2.2141 22.5643C2.2141 11.1574 11.4943 1.87719 22.9012 1.87719ZM22.9012 0.498047C10.7137 0.498047 0.834961 10.3768 0.834961 22.5643C0.834961 34.7518 10.7151 44.6305 22.9012 44.6305C35.0873 44.6305 44.9675 34.7504 44.9675 22.5643C44.9675 10.3782 35.0873 0.498047 22.9012 0.498047Z" fill="white" fill-opacity="0.5"/>
<path d="M22.9012 2.04373C34.2161 2.04373 43.4218 11.2494 43.4218 22.5643C43.4218 33.8792 34.2161 43.0849 22.9012 43.0849C11.5863 43.0849 2.38064 33.8792 2.38064 22.5643C2.38064 11.2494 11.5863 2.04373 22.9012 2.04373ZM22.9012 0.331509C10.6218 0.331509 0.668423 10.2849 0.668423 22.5643C0.668423 34.8437 10.6232 44.7971 22.9012 44.7971C35.1793 44.7971 45.134 34.8424 45.134 22.5643C45.134 10.2862 35.1793 0.331509 22.9012 0.331509Z" stroke="white" stroke-opacity="0.5" stroke-width="0.333075"/>
</svg>
