<svg width="237" height="47" viewBox="0 0 237 47" fill="none" xmlns="http://www.w3.org/2000/svg">
<path d="M8.7002 12.8052L20.4202 34.1952L33.4402 12.8052H29.0502L20.5502 26.7452L13.0902 12.8052H8.7002Z" fill="#C09E3A"/>
<path d="M17.5 24.6852L11.71 34.1952L0 12.8052H4.38L11.84 26.7452L15.42 20.8752L17.5 24.6852Z" fill="#C09E3A"/>
<path d="M18.0498 16.5652L20.3498 12.8052H24.7398L20.0298 20.5352L18.0498 16.5652Z" fill="#C09E3A"/>
<path d="M44.1802 0.765137H43.9902V46.2351H44.1802V0.765137Z" fill="white"/>
<path d="M89.3896 33.2953V13.6953H91.7096V22.3153H102.29V13.6953H104.61V33.2953H102.29V24.5353H91.7096V33.2953H89.3896Z" fill="white"/>
<path d="M112.38 13.6953H114.7V33.2953H112.38V13.6953Z" fill="white"/>
<path d="M121.82 33.2953V13.6953H126.44C127.07 13.6953 127.78 13.7953 128.55 13.9853C129.32 14.1853 130.05 14.4953 130.72 14.9253C131.39 15.3553 131.95 15.9053 132.4 16.5753C132.85 17.2453 133.07 18.0553 133.07 19.0153C133.07 20.4153 132.72 21.5853 132.02 22.5253C131.32 23.4653 130.3 24.0853 128.95 24.3853L133.15 33.2853H130.63L126.51 24.5453H124.13V33.2853H121.81L121.82 33.2953ZM124.14 22.3153H126.58C127.4 22.3153 128.08 22.2053 128.61 21.9953C129.14 21.7853 129.57 21.5153 129.88 21.1953C130.2 20.8753 130.42 20.5253 130.55 20.1353C130.68 19.7453 130.75 19.3653 130.75 19.0153C130.75 18.6053 130.64 18.2053 130.43 17.8253C130.22 17.4453 129.93 17.1053 129.56 16.8153C129.2 16.5253 128.76 16.2953 128.24 16.1253C127.72 15.9553 127.18 15.8753 126.6 15.8753H124.14V22.3153Z" fill="white"/>
<path d="M139.46 33.2953V13.6953H141.78V31.0853H151.92V33.2953H139.46Z" fill="white"/>
<path d="M187.53 13.6953H189.85V33.2953H187.53V13.6953Z" fill="white"/>
<path d="M215.25 13.6952V34.1952C212.84 31.6352 210.45 29.0952 208.08 26.5752C205.71 24.0552 203.32 21.5152 200.91 18.9552C200.82 18.8252 200.73 18.7052 200.64 18.5952C200.55 18.4852 200.47 18.3652 200.37 18.2352C200.39 18.3852 200.4 18.5352 200.41 18.6852C200.41 18.8352 200.43 18.9852 200.45 19.1352V33.3052H198.13V12.8052C200.54 15.4152 202.93 18.0052 205.3 20.5752C207.67 23.1452 210.06 25.7352 212.47 28.3452C212.56 28.4752 212.65 28.5952 212.74 28.7052C212.82 28.8152 212.91 28.9352 213.01 29.0652C212.99 28.9152 212.98 28.7652 212.97 28.6152C212.96 28.4652 212.95 28.3152 212.93 28.1652V13.6852H215.25V13.6952Z" fill="white"/>
<path d="M222.58 13.6953H227.14C228.48 13.6953 229.75 13.9253 230.95 14.3853C232.14 14.8453 233.19 15.5053 234.09 16.3553C234.99 17.2153 235.69 18.2453 236.22 19.4453C236.74 20.6453 237 22.0053 237 23.5153C237 24.6153 236.81 25.7453 236.43 26.9053C236.05 28.0653 235.43 29.1153 234.57 30.0553C233.71 30.9953 232.6 31.7753 231.22 32.3753C229.85 32.9853 228.17 33.2853 226.19 33.2853H222.58V13.6953ZM224.9 15.9053V31.0553H226.86C227.96 31.0553 228.99 30.8753 229.94 30.5253C230.89 30.1753 231.72 29.6653 232.42 28.9953C233.12 28.3353 233.67 27.5353 234.07 26.6153C234.47 25.6953 234.67 24.6553 234.67 23.4953C234.67 22.3353 234.47 21.2953 234.07 20.3553C233.67 19.4253 233.12 18.6253 232.42 17.9653C231.72 17.3053 230.89 16.7953 229.94 16.4353C228.99 16.0853 227.96 15.9053 226.86 15.9053H224.9Z" fill="white"/>
<path d="M54.7402 12.9648L63.5502 33.2948L68.8002 18.4248L73.9502 33.2948L82.7002 13.0048H80.2102L73.9602 27.8748L68.7202 12.9648L63.6802 27.9348L57.2302 12.9648H54.7402Z" fill="white"/>
<path d="M152.44 12.9648L161.25 33.2948L166.5 18.4248L171.65 33.2948L180.4 13.0048H177.91L171.65 27.8748L166.42 12.9648L161.38 27.9348L154.93 12.9648H152.44Z" fill="white"/>
</svg>
