<svg width="65" height="65" viewBox="0 0 65 65" fill="none" xmlns="http://www.w3.org/2000/svg">
<path d="M32.6982 3.20713C48.8552 3.20713 62.0004 16.3523 62.0004 32.5093C62.0004 48.6662 48.8552 61.8114 32.6982 61.8114C16.5412 61.8114 3.3961 48.6662 3.3961 32.5093C3.3961 16.3523 16.5412 3.20713 32.6982 3.20713ZM32.6982 0.762194C15.1639 0.762194 0.951159 14.975 0.951159 32.5093C0.951159 50.0436 15.1659 64.2563 32.6982 64.2563C50.2306 64.2563 64.4453 50.0416 64.4453 32.5093C64.4453 14.9769 50.2306 0.762194 32.6982 0.762194Z" fill="#C09E3A" stroke="#C09E3A" stroke-width="0.475611"/>
<path d="M32.4728 17.8447C26.8455 17.8447 22.2671 22.4231 22.2671 28.0505C22.2671 29.7398 22.6895 31.4148 23.4924 32.9004L31.9147 48.133C32.0268 48.336 32.2405 48.4619 32.4728 48.4619C32.7051 48.4619 32.9188 48.336 33.0309 48.133L41.4564 32.8954C42.2562 31.4148 42.6785 29.7397 42.6785 28.0504C42.6785 22.4231 38.1002 17.8447 32.4728 17.8447ZM32.4728 33.1533C29.6592 33.1533 27.37 30.8641 27.37 28.0505C27.37 25.2368 29.6592 22.9476 32.4728 22.9476C35.2865 22.9476 37.5757 25.2368 37.5757 28.0505C37.5757 30.8641 35.2865 33.1533 32.4728 33.1533Z" fill="#C09E3A"/>
</svg>
