<svg width="112" height="67" viewBox="0 0 112 67" fill="none" xmlns="http://www.w3.org/2000/svg">
<g filter="url(#filter0_b_738_7314)">
<mask id="path-1-inside-1_738_7314" fill="white">
<path fill-rule="evenodd" clip-rule="evenodd" d="M0.654202 1.22143C0 2.44286 0 4.40872 0 8.34045V38.7082C0 42.6399 0 44.6058 0.654202 45.8272C1.3084 47.0486 2.36132 47.0486 4.46717 47.0486H46.5217L53.6354 66.809L60.7492 47.0486H106.568C108.673 47.0486 109.726 47.0486 110.381 45.8272C111.035 44.6058 111.035 42.6399 111.035 38.7082V8.34045C111.035 4.40872 111.035 2.44286 110.381 1.22143C109.726 0 108.673 0 106.568 0H4.46717C2.36132 0 1.3084 0 0.654202 1.22143Z"/>
</mask>
<path fill-rule="evenodd" clip-rule="evenodd" d="M0.654202 1.22143C0 2.44286 0 4.40872 0 8.34045V38.7082C0 42.6399 0 44.6058 0.654202 45.8272C1.3084 47.0486 2.36132 47.0486 4.46717 47.0486H46.5217L53.6354 66.809L60.7492 47.0486H106.568C108.673 47.0486 109.726 47.0486 110.381 45.8272C111.035 44.6058 111.035 42.6399 111.035 38.7082V8.34045C111.035 4.40872 111.035 2.44286 110.381 1.22143C109.726 0 108.673 0 106.568 0H4.46717C2.36132 0 1.3084 0 0.654202 1.22143Z" fill="#CCCCCC"/>
<path d="M0.654202 45.8272L1.48369 45.3829H1.48369L0.654202 45.8272ZM46.5217 47.0486L47.407 46.7299L47.183 46.1076H46.5217V47.0486ZM53.6354 66.809L52.7501 67.1278L53.6354 69.5871L54.5208 67.1278L53.6354 66.809ZM60.7492 47.0486V46.1076H60.0878L59.8638 46.7299L60.7492 47.0486ZM110.381 45.8272L111.21 46.2715L111.21 46.2715L110.381 45.8272ZM110.381 1.22143L111.21 0.777157L111.21 0.777153L110.381 1.22143ZM0.940972 8.34045C0.940972 6.3602 0.941553 4.92596 1.02032 3.83216C1.09949 2.73273 1.25229 2.09773 1.48369 1.66571L-0.175285 0.777155C-0.598092 1.56656 -0.772386 2.5252 -0.856767 3.69699C-0.941553 4.87442 -0.940972 6.38897 -0.940972 8.34045H0.940972ZM0.940972 38.7082V8.34045H-0.940972V38.7082H0.940972ZM1.48369 45.3829C1.25229 44.9509 1.09949 44.3159 1.02032 43.2164C0.941553 42.1227 0.940972 40.6884 0.940972 38.7082H-0.940972C-0.940972 40.6596 -0.941553 42.1742 -0.856767 43.3516C-0.772386 44.5234 -0.598092 45.4821 -0.175285 46.2715L1.48369 45.3829ZM4.46717 46.1076C3.3662 46.1076 2.71433 46.101 2.24541 45.9833C1.8843 45.8926 1.68078 45.7509 1.48369 45.3829L-0.175285 46.2715C0.281829 47.1249 0.931868 47.5939 1.78722 47.8086C2.53478 47.9962 3.46229 47.9896 4.46717 47.9896V46.1076ZM46.5217 46.1076H4.46717V47.9896H46.5217V46.1076ZM54.5208 66.4903L47.407 46.7299L45.6363 47.3673L52.7501 67.1278L54.5208 66.4903ZM59.8638 46.7299L52.7501 66.4903L54.5208 67.1278L61.6345 47.3673L59.8638 46.7299ZM106.568 46.1076H60.7492V47.9896H106.568V46.1076ZM109.551 45.3829C109.354 45.7509 109.15 45.8926 108.789 45.9833C108.32 46.101 107.669 46.1076 106.568 46.1076V47.9896C107.572 47.9896 108.5 47.9962 109.247 47.8086C110.103 47.5939 110.753 47.1249 111.21 46.2715L109.551 45.3829ZM110.094 38.7082C110.094 40.6884 110.093 42.1227 110.014 43.2164C109.935 44.3159 109.782 44.9509 109.551 45.3829L111.21 46.2715C111.633 45.4821 111.807 44.5234 111.891 43.3516C111.976 42.1742 111.976 40.6596 111.976 38.7082H110.094ZM110.094 8.34045V38.7082H111.976V8.34045H110.094ZM109.551 1.6657C109.782 2.09773 109.935 2.73273 110.014 3.83216C110.093 4.92596 110.094 6.3602 110.094 8.34045H111.976C111.976 6.38897 111.976 4.87442 111.891 3.69699C111.807 2.52521 111.633 1.56656 111.21 0.777157L109.551 1.6657ZM106.568 0.940972C107.669 0.940972 108.32 0.94763 108.789 1.06534C109.15 1.15598 109.354 1.29773 109.551 1.66571L111.21 0.777153C110.753 -0.0763035 110.103 -0.545268 109.247 -0.759979C108.5 -0.94763 107.572 -0.940972 106.568 -0.940972V0.940972ZM4.46717 0.940972H106.568V-0.940972H4.46717V0.940972ZM1.48369 1.66571C1.68078 1.29773 1.8843 1.15598 2.24541 1.06534C2.71433 0.94763 3.3662 0.940972 4.46717 0.940972V-0.940972C3.46229 -0.940972 2.53478 -0.94763 1.78722 -0.759979C0.931868 -0.545269 0.28183 -0.0763035 -0.175285 0.777155L1.48369 1.66571Z" fill="#929292" mask="url(#path-1-inside-1_738_7314)"/>
</g>
<defs>
<filter id="filter0_b_738_7314" x="-37.6389" y="-37.6389" width="186.312" height="142.087" filterUnits="userSpaceOnUse" color-interpolation-filters="sRGB">
<feFlood flood-opacity="0" result="BackgroundImageFix"/>
<feGaussianBlur in="BackgroundImageFix" stdDeviation="18.8194"/>
<feComposite in2="SourceAlpha" operator="in" result="effect1_backgroundBlur_738_7314"/>
<feBlend mode="normal" in="SourceGraphic" in2="effect1_backgroundBlur_738_7314" result="shape"/>
</filter>
</defs>
</svg>
