<svg width="237" height="46" viewBox="0 0 237 46" fill="none" xmlns="http://www.w3.org/2000/svg">
<path d="M8.7002 12.04L20.4202 33.43L33.4402 12.04H29.0502L20.5502 25.98L13.0902 12.04H8.7002Z" fill="#C09E3A"/>
<path d="M17.5 23.92L11.71 33.43L0 12.04H4.38L11.84 25.98L15.42 20.11L17.5 23.92Z" fill="#C09E3A"/>
<path d="M18.0498 15.8L20.3498 12.04H24.7398L20.0298 19.77L18.0498 15.8Z" fill="#C09E3A"/>
<path d="M44.1802 0H43.9902V45.47H44.1802V0Z" fill="white"/>
<path d="M89.3896 32.5297V12.9297H91.7096V21.5497H102.29V12.9297H104.61V32.5297H102.29V23.7697H91.7096V32.5297H89.3896Z" fill="white"/>
<path d="M112.38 12.9297H114.7V32.5297H112.38V12.9297Z" fill="white"/>
<path d="M121.82 32.5297V12.9297H126.44C127.07 12.9297 127.78 13.0297 128.55 13.2197C129.32 13.4197 130.05 13.7297 130.72 14.1597C131.39 14.5897 131.95 15.1397 132.4 15.8097C132.85 16.4797 133.07 17.2897 133.07 18.2497C133.07 19.6497 132.72 20.8197 132.02 21.7597C131.32 22.6997 130.3 23.3197 128.95 23.6197L133.15 32.5197H130.63L126.51 23.7797H124.13V32.5197H121.81L121.82 32.5297ZM124.14 21.5497H126.58C127.4 21.5497 128.08 21.4397 128.61 21.2297C129.14 21.0197 129.57 20.7497 129.88 20.4297C130.2 20.1097 130.42 19.7597 130.55 19.3697C130.68 18.9797 130.75 18.5997 130.75 18.2497C130.75 17.8397 130.64 17.4397 130.43 17.0597C130.22 16.6797 129.93 16.3397 129.56 16.0497C129.2 15.7597 128.76 15.5297 128.24 15.3597C127.72 15.1897 127.18 15.1097 126.6 15.1097H124.14V21.5497Z" fill="white"/>
<path d="M139.46 32.5297V12.9297H141.78V30.3197H151.92V32.5297H139.46Z" fill="white"/>
<path d="M187.53 12.9297H189.85V32.5297H187.53V12.9297Z" fill="white"/>
<path d="M215.25 12.93V33.43C212.84 30.87 210.45 28.33 208.08 25.81C205.71 23.29 203.32 20.75 200.91 18.19C200.82 18.06 200.73 17.94 200.64 17.83C200.55 17.72 200.47 17.6 200.37 17.47C200.39 17.62 200.4 17.77 200.41 17.92C200.41 18.07 200.43 18.22 200.45 18.37V32.54H198.13V12.04C200.54 14.65 202.93 17.24 205.3 19.81C207.67 22.38 210.06 24.97 212.47 27.58C212.56 27.71 212.65 27.83 212.74 27.94C212.82 28.05 212.91 28.17 213.01 28.3C212.99 28.15 212.98 28 212.97 27.85C212.96 27.7 212.95 27.55 212.93 27.4V12.92H215.25V12.93Z" fill="white"/>
<path d="M222.58 12.9297H227.14C228.48 12.9297 229.75 13.1597 230.95 13.6197C232.14 14.0797 233.19 14.7397 234.09 15.5897C234.99 16.4497 235.69 17.4797 236.22 18.6797C236.74 19.8797 237 21.2397 237 22.7497C237 23.8497 236.81 24.9797 236.43 26.1397C236.05 27.2997 235.43 28.3497 234.57 29.2897C233.71 30.2297 232.6 31.0097 231.22 31.6097C229.85 32.2197 228.17 32.5197 226.19 32.5197H222.58V12.9297ZM224.9 15.1397V30.2897H226.86C227.96 30.2897 228.99 30.1097 229.94 29.7597C230.89 29.4097 231.72 28.8997 232.42 28.2297C233.12 27.5697 233.67 26.7697 234.07 25.8497C234.47 24.9297 234.67 23.8897 234.67 22.7297C234.67 21.5697 234.47 20.5297 234.07 19.5897C233.67 18.6597 233.12 17.8597 232.42 17.1997C231.72 16.5397 230.89 16.0297 229.94 15.6697C228.99 15.3197 227.96 15.1397 226.86 15.1397H224.9Z" fill="white"/>
<path d="M54.7402 12.2002L63.5502 32.5302L68.8002 17.6602L73.9502 32.5302L82.7002 12.2402H80.2102L73.9602 27.1102L68.7202 12.2002L63.6802 27.1702L57.2302 12.2002H54.7402Z" fill="white"/>
<path d="M152.44 12.2002L161.25 32.5302L166.5 17.6602L171.65 32.5302L180.4 12.2402H177.91L171.65 27.1102L166.42 12.2002L161.38 27.1702L154.93 12.2002H152.44Z" fill="white"/>
</svg>
