<svg width="40" height="40" viewBox="0 0 40 40" fill="none" xmlns="http://www.w3.org/2000/svg">
<rect width="40" height="40" rx="20" fill="#C09E3A"/>
<g clip-path="url(#clip0_801_112)">
<path d="M12.9256 25.7456L10.9656 27.1388C11.866 28.3138 13.0076 29.2823 14.3137 29.9791C15.6197 30.676 17.0598 31.0851 18.5372 31.1788C18.6256 31.1844 18.7136 31.1856 18.8016 31.1888V28.7804C18.6312 28.772 18.4608 28.7684 18.2896 28.7492C17.2414 28.6277 16.2277 28.2997 15.307 27.7842C14.3863 27.2686 13.5769 26.5758 12.9256 25.7456Z" fill="white"/>
<path d="M24.4027 20.8027C24.4026 19.7737 24.0974 18.7679 23.5256 17.9123C22.9539 17.0568 22.1413 16.39 21.1906 15.9963C20.2399 15.6025 19.1938 15.4996 18.1846 15.7004C17.1754 15.9012 16.2484 16.3967 15.5208 17.1244C14.7932 17.852 14.2977 18.779 14.097 19.7883C13.8963 20.7975 13.9994 21.8436 14.3932 22.7943C14.7869 23.7449 15.4538 24.5575 16.3094 25.1291C17.165 25.7008 18.1709 26.0059 19.1999 26.0059C20.5793 26.0044 21.9018 25.4556 22.8772 24.4802C23.8526 23.5047 24.4012 22.1822 24.4027 20.8027ZM21.1999 22.4027C21.1993 22.8636 21.0398 23.3102 20.7484 23.6672C20.4569 24.0243 20.0513 24.2699 19.5999 24.3627V24.4027C19.5999 24.5088 19.5577 24.6106 19.4827 24.6856C19.4077 24.7606 19.306 24.8027 19.1999 24.8027C19.0938 24.8027 18.992 24.7606 18.917 24.6856C18.842 24.6106 18.7999 24.5088 18.7999 24.4027V24.3627C18.3484 24.2699 17.9428 24.0243 17.6514 23.6672C17.3599 23.3102 17.2005 22.8636 17.1999 22.4027C17.1999 22.2967 17.242 22.1949 17.317 22.1199C17.392 22.0449 17.4938 22.0027 17.5999 22.0027C17.706 22.0027 17.8077 22.0449 17.8827 22.1199C17.9577 22.1949 17.9999 22.2967 17.9999 22.4027C18.0009 22.65 18.0783 22.891 18.2215 23.0926C18.3647 23.2943 18.5667 23.4467 18.7999 23.5291V21.1623C18.3478 21.0705 17.9413 20.8253 17.6493 20.468C17.3574 20.1108 17.1979 19.6637 17.1979 19.2023C17.1979 18.741 17.3574 18.2938 17.6493 17.9366C17.9413 17.5794 18.3478 17.3342 18.7999 17.2423V17.2023C18.7999 17.0963 18.842 16.9945 18.917 16.9195C18.992 16.8445 19.0938 16.8023 19.1999 16.8023C19.306 16.8023 19.4077 16.8445 19.4827 16.9195C19.5577 16.9945 19.5999 17.0963 19.5999 17.2023V17.2423C20.0513 17.3352 20.4569 17.5808 20.7484 17.9378C21.0398 18.2949 21.1993 18.7415 21.1999 19.2023C21.1999 19.3084 21.1577 19.4102 21.0827 19.4852C21.0077 19.5602 20.906 19.6023 20.7999 19.6023C20.6938 19.6023 20.592 19.5602 20.517 19.4852C20.442 19.4102 20.3999 19.3084 20.3999 19.2023C20.3988 18.955 20.3214 18.7141 20.1782 18.5125C20.035 18.3108 19.833 18.1584 19.5999 18.0759V20.4427C20.0513 20.5356 20.4569 20.7812 20.7484 21.1382C21.0398 21.4953 21.1993 21.9419 21.1999 22.4027Z" fill="white"/>
<path d="M18 19.2028C18.001 19.4501 18.0784 19.6911 18.2216 19.8927C18.3648 20.0943 18.5668 20.2468 18.8 20.3292V18.0764C18.5668 18.1588 18.3648 18.3113 18.2216 18.5129C18.0784 18.7146 18.001 18.9555 18 19.2028Z" fill="white"/>
<path d="M19.5999 23.5292C19.8337 23.4477 20.0363 23.2955 20.1798 23.0937C20.3232 22.8918 20.4002 22.6504 20.4002 22.4028C20.4002 22.1552 20.3232 21.9137 20.1798 21.7119C20.0363 21.51 19.8337 21.3578 19.5999 21.2764V23.5292Z" fill="white"/>
<path d="M11.2508 21.7119C11.1236 20.6241 11.2226 19.5217 11.5415 18.474C11.8605 17.4263 12.3926 16.4558 13.1044 15.6235C14.4509 14.0419 16.3576 13.0434 18.4244 12.8375C18.5241 12.8296 18.6173 12.7846 18.6855 12.7115C18.7536 12.6383 18.792 12.5423 18.7928 12.4423L18.8 10.8367C18.8005 10.7818 18.7897 10.7273 18.7682 10.6768C18.7468 10.6262 18.7151 10.5806 18.6753 10.5428C18.6354 10.5051 18.5882 10.4759 18.5366 10.4571C18.485 10.4384 18.4301 10.4305 18.3752 10.4339C16.5762 10.5752 14.845 11.1827 13.3521 12.1965C11.8592 13.2103 10.656 14.5955 9.86119 16.2156C9.06635 17.8358 8.70718 19.635 8.81906 21.4361C8.93094 23.2372 9.51001 24.9782 10.4992 26.4875L12.4592 25.0943C11.8013 24.075 11.3877 22.9174 11.2508 21.7119Z" fill="white"/>
<path d="M29.1667 21.202L27.5599 21.2C27.4596 21.2004 27.3631 21.2386 27.2896 21.3068C27.2162 21.375 27.171 21.4684 27.1631 21.5684C26.9592 23.6375 25.9608 25.547 24.3779 26.8952C23.039 28.0372 21.3578 28.7007 19.5999 28.7808V31.1924C22.1439 31.094 24.5635 30.0661 26.4005 28.3033C28.2375 26.5406 29.3643 24.1654 29.5675 21.6276C29.571 21.5728 29.5632 21.518 29.5446 21.4664C29.526 21.4148 29.4971 21.3676 29.4595 21.3277C29.4219 21.2878 29.3765 21.256 29.3261 21.2344C29.2758 21.2128 29.2215 21.2017 29.1667 21.202Z" fill="white"/>
<path d="M30.9171 8.51727L28.4371 10.9973V10.4373C28.4371 10.3312 28.395 10.2294 28.32 10.1544C28.2449 10.0794 28.1432 10.0373 28.0371 10.0373C27.931 10.0373 27.8293 10.0794 27.7543 10.1544C27.6793 10.2294 27.6371 10.3312 27.6371 10.4373V11.3733C25.9594 9.89833 23.8489 9.00661 21.6219 8.83167C21.5674 8.82833 21.5127 8.83621 21.4613 8.85482C21.41 8.87342 21.3629 8.90235 21.3232 8.93984C21.2834 8.97732 21.2517 9.02255 21.2301 9.07274C21.2085 9.12293 21.1974 9.17702 21.1975 9.23167L21.1999 10.8421C21.2004 10.9425 21.2387 11.0391 21.3072 11.1127C21.3757 11.1862 21.4693 11.2312 21.5695 11.2389C23.5041 11.4214 25.3049 12.3062 26.6315 13.7261C27.8401 15.015 28.5899 16.6666 28.7647 18.4249C28.7727 18.5244 28.8176 18.6174 28.8907 18.6855C28.9638 18.7536 29.0596 18.7919 29.1595 18.7929L30.7639 18.8001C30.819 18.8006 30.8735 18.7898 30.9242 18.7683C30.9749 18.7468 31.0206 18.715 31.0585 18.675C31.0963 18.6351 31.1255 18.5877 31.1442 18.5359C31.1629 18.4841 31.1707 18.429 31.1671 18.3741C30.9907 16.1491 30.099 14.041 28.6251 12.3649H29.5631C29.6692 12.3649 29.7709 12.3227 29.846 12.2477C29.921 12.1727 29.9631 12.071 29.9631 11.9649C29.9631 11.8588 29.921 11.757 29.846 11.682C29.7709 11.607 29.6692 11.5649 29.5631 11.5649H29.0031L31.4831 9.08487C31.556 9.00943 31.5963 8.90839 31.5954 8.80351C31.5945 8.69863 31.5524 8.5983 31.4782 8.52414C31.4041 8.44998 31.3038 8.40791 31.1989 8.407C31.094 8.40609 30.993 8.4464 30.9175 8.51927L30.9171 8.51727Z" fill="white"/>
</g>
<defs>
<clipPath id="clip0_801_112">
<rect width="24" height="24" fill="white" transform="translate(8 8)"/>
</clipPath>
</defs>
</svg>
