<svg width="40" height="40" viewBox="0 0 40 40" fill="none" xmlns="http://www.w3.org/2000/svg">
<rect width="40" height="40" rx="20" fill="#C09E3A"/>
<g clip-path="url(#clip0_738_7016)">
<path d="M21 25.5809H22.4545V16.3569L27.1047 18.301C27.2356 18.3558 27.3472 18.4468 27.4255 18.5629C27.5039 18.6789 27.5456 18.8148 27.5455 18.9538V25.5809H29V27H13V25.5809H14.4545V16.1085C14.4545 15.9713 14.4953 15.8369 14.572 15.7218C14.6487 15.6067 14.758 15.5158 14.8865 15.46L20.4887 13.0306C20.5442 13.0065 20.6049 12.9964 20.6653 13.0011C20.7258 13.0058 20.784 13.0252 20.8349 13.0575C20.8857 13.0898 20.9274 13.134 20.9562 13.186C20.9851 13.2381 21.0001 13.2964 21 13.3555V25.5809Z" fill="white"/>
</g>
<defs>
<clipPath id="clip0_738_7016">
<rect width="17" height="17" fill="white" transform="translate(12 12)"/>
</clipPath>
</defs>
</svg>
