<svg width="40" height="41" viewBox="0 0 40 41" fill="none" xmlns="http://www.w3.org/2000/svg">
<rect y="0.5" width="40" height="40" rx="20" fill="#C09E3A"/>
<g clip-path="url(#clip0_738_7054)">
<path d="M27.8375 25.29C27.92 25.1456 28.0884 25.0734 28.2465 25.125L29.0543 25.3897C29.2365 25.4481 29.429 25.3484 29.4874 25.1662L30.1749 23.0625H26.5587C25.6856 25.8537 23.08 27.875 20 27.875C16.92 27.875 14.3143 25.8537 13.4412 23.0625H9.82495L10.5125 25.1662C10.5709 25.3484 10.7634 25.4481 10.9456 25.3897L11.7534 25.125C11.9115 25.0734 12.08 25.1456 12.1625 25.29C12.5268 25.9603 12.9771 26.5791 13.4962 27.1291C13.6096 27.2494 13.6268 27.435 13.5271 27.5691L13.0287 28.2566C12.9153 28.4113 12.9496 28.6244 13.1043 28.7378L14.7715 29.9478C14.9262 30.0612 15.1428 30.0269 15.2528 29.8722L15.7512 29.1847C15.8509 29.0506 16.0296 29.0094 16.1809 29.0781C16.8581 29.4012 17.5834 29.6419 18.3396 29.7828C18.5046 29.8137 18.625 29.9547 18.625 30.1197V30.9688C18.625 31.1578 18.7796 31.3125 18.9687 31.3125H21.0312C21.2203 31.3125 21.375 31.1578 21.375 30.9688V30.1197C21.375 29.9547 21.4953 29.8137 21.6603 29.7828C22.4165 29.6419 23.1418 29.4012 23.819 29.0781C23.9703 29.0094 24.149 29.0506 24.2487 29.1847L24.7471 29.8722C24.8571 30.0269 25.0737 30.0612 25.2284 29.9478L26.8956 28.7378C27.0503 28.6244 27.0846 28.4113 26.9712 28.2566L26.4728 27.5691C26.3731 27.435 26.3903 27.2494 26.5037 27.1291C27.0228 26.5791 27.4731 25.9603 27.8375 25.29Z" fill="white"/>
<path d="M9.34375 21.6875H30.6562V22.375H9.34375V21.6875Z" fill="white"/>
<path d="M10.0312 15.8438H12.7812V21H10.0312V15.8438Z" fill="white"/>
<path d="M18.2812 14.4688H21.7188V21H18.2812V14.4688Z" fill="white"/>
<path d="M27.2188 16.1875H29.9688V21H27.2188V16.1875Z" fill="white"/>
<path d="M22.4062 14.4688V21H26.5312V10.6875H22.4062V14.4688ZM24.8125 12.0625H25.5V12.75H24.8125V12.0625ZM24.8125 13.7812H25.5V14.4688H24.8125V13.7812ZM24.8125 15.5H25.5V16.1875H24.8125V15.5ZM23.4375 12.0625H24.125V12.75H23.4375V12.0625ZM23.4375 13.7812H24.125V14.4688H23.4375V13.7812ZM23.4375 15.5H24.125V16.1875H23.4375V15.5Z" fill="white"/>
<path d="M13.4688 21H17.5938V12.75L15.5312 11.0312L13.4688 12.75V21ZM14.5 13.4375H16.5625V14.125H14.5V13.4375ZM14.5 15.1562H16.5625V15.8438H14.5V15.1562Z" fill="white"/>
</g>
<defs>
<clipPath id="clip0_738_7054">
<rect width="22" height="22" fill="white" transform="translate(9 10)"/>
</clipPath>
</defs>
</svg>
