<svg width="38" height="38" viewBox="0 0 38 38" fill="none" xmlns="http://www.w3.org/2000/svg">
<g opacity="0.5">
<path d="M25.3129 25.1932V19.5046C25.3129 16.4566 23.6859 15.0387 21.5166 15.0387C19.7665 15.0387 18.9822 16.0013 18.545 16.6774V15.2722H15.2475C15.291 16.203 15.2475 25.1932 15.2475 25.1932H18.545V19.6522C18.545 19.3561 18.5662 19.06 18.6543 18.8488C18.892 18.2566 19.4343 17.6431 20.3449 17.6431C21.5389 17.6431 22.0154 18.5527 22.0154 19.8857V25.1932H25.3129ZM11.7739 13.918C12.9233 13.918 13.6397 13.156 13.6397 12.2029C13.6184 11.2297 12.9233 10.49 11.7951 10.49C10.667 10.49 9.93042 11.2297 9.93042 12.2029C9.93042 13.1549 10.6468 13.918 11.7527 13.918H11.7739ZM13.4221 25.1932V15.2722H10.1257V25.1932H13.4221Z" fill="#C09E3A"/>
<path d="M17.6216 3.11182C26.3288 3.11182 33.4129 10.1959 33.4129 18.9031C33.4129 27.6103 26.3288 34.6944 17.6216 34.6944C8.91441 34.6944 1.83032 27.6103 1.83032 18.9031C1.83032 10.1959 8.91441 3.11182 17.6216 3.11182ZM17.6216 1.79421C8.17216 1.79421 0.512713 9.45365 0.512713 18.9031C0.512713 28.3526 8.17323 36.012 17.6216 36.012C27.07 36.012 34.7305 28.3515 34.7305 18.9031C34.7305 9.45471 27.07 1.79421 17.6216 1.79421Z" fill="#C09E3A" stroke="#C09E3A" stroke-width="0.256313"/>
</g>
</svg>
