<svg width="177" height="32" viewBox="0 0 177 32" fill="none" xmlns="http://www.w3.org/2000/svg">
<path fill-rule="evenodd" clip-rule="evenodd" d="M16.5922 3H6.5V8L27.5 29H32.5V18.925L16.5922 3Z" fill="#111010"/>
<path d="M32.5 3L24.5 3L24.5 11L32.5 11V3Z" fill="#111010"/>
<path d="M16.5 19H6.5L16.5 29V19Z" fill="#111010"/>
<path d="M43.1982 24.5V8.72893H45.7173L54.185 19.8851L52.8302 20.2026V8.72893H56.1114V24.5H53.5711L45.2516 13.2591L46.4794 12.9416V24.5H43.1982ZM58.9097 24.5V8.72893H69.5155V11.5868H62.1909V15.1644H69.0921V18.0222H62.1909V21.6422H69.5155V24.5H58.9097ZM70.2113 24.5L75.3765 16.6039L70.2113 8.72893H73.9794L78.1285 15.0374H76.2868L80.4148 8.72893H84.1829L79.0388 16.6039L84.1829 24.5H80.4148L76.2868 18.1704L78.1285 18.1916L73.9794 24.5H70.2113ZM88.642 24.5V11.5868H84.641V8.72893H95.8607V11.5868H91.9233V24.5H88.642ZM97.4856 24.5V8.72893H108.282V11.5868H100.767V15.5878H107.223V18.4456H100.767V24.5H97.4856ZM109.91 24.5V8.72893H113.191V21.6422H119.86V24.5H109.91ZM128.97 24.754C127.784 24.754 126.683 24.5494 125.667 24.1401C124.651 23.7309 123.762 23.1593 123 22.4254C122.252 21.6774 121.666 20.8095 121.243 19.8216C120.82 18.8337 120.608 17.7611 120.608 16.6039C120.608 15.4466 120.813 14.3741 121.222 13.3862C121.645 12.3983 122.231 11.5374 122.979 10.8035C123.741 10.0697 124.63 9.49808 125.646 9.08881C126.662 8.67954 127.77 8.4749 128.97 8.4749C130.169 8.4749 131.277 8.67954 132.293 9.08881C133.309 9.49808 134.191 10.0697 134.939 10.8035C135.702 11.5374 136.287 12.3983 136.696 13.3862C137.12 14.3741 137.332 15.4466 137.332 16.6039C137.332 17.7611 137.12 18.8337 136.696 19.8216C136.273 20.8095 135.68 21.6774 134.918 22.4254C134.17 23.1593 133.288 23.7309 132.272 24.1401C131.256 24.5494 130.155 24.754 128.97 24.754ZM128.97 21.7903C129.689 21.7903 130.353 21.6633 130.96 21.4093C131.581 21.1553 132.124 20.8024 132.59 20.3508C133.055 19.8851 133.415 19.3347 133.669 18.6996C133.923 18.0646 134.05 17.366 134.05 16.6039C134.05 15.8418 133.923 15.1503 133.669 14.5293C133.415 13.8942 133.055 13.3438 132.59 12.8781C132.124 12.4124 131.581 12.0596 130.96 11.8196C130.353 11.5656 129.689 11.4386 128.97 11.4386C128.25 11.4386 127.58 11.5656 126.959 11.8196C126.352 12.0596 125.816 12.4124 125.35 12.8781C124.884 13.3438 124.524 13.8942 124.27 14.5293C124.016 15.1503 123.889 15.8418 123.889 16.6039C123.889 17.366 124.016 18.0646 124.27 18.6996C124.524 19.3347 124.884 19.8851 125.35 20.3508C125.816 20.8024 126.352 21.1553 126.959 21.4093C127.58 21.6633 128.25 21.7903 128.97 21.7903ZM142.209 24.5L138.081 8.72893H141.637L144.749 21.9385H143.797L147.078 8.72893H150.465L153.746 21.9385H152.794L155.905 8.72893H159.462L155.334 24.5H151.523L148.221 11.7985H149.322L146.019 24.5H142.209ZM166.627 24.754C165.639 24.754 164.707 24.5776 163.832 24.2248C162.972 23.8579 162.224 23.3427 161.588 22.6794C160.968 22.0161 160.502 21.2329 160.191 20.3297L162.88 19.123C163.275 19.9839 163.818 20.6613 164.51 21.1553C165.215 21.6492 165.992 21.8962 166.838 21.8962C167.29 21.8962 167.678 21.8256 168.003 21.6845C168.327 21.5434 168.581 21.3528 168.765 21.1129C168.948 20.8589 169.04 20.5625 169.04 20.2238C169.04 19.8569 168.927 19.5464 168.701 19.2924C168.476 19.0242 168.123 18.8125 167.643 18.6573L164.552 17.6412C163.296 17.2319 162.351 16.6533 161.716 15.9053C161.08 15.1432 160.763 14.2329 160.763 13.1745C160.763 12.243 160.989 11.4245 161.44 10.7188C161.906 10.0132 162.548 9.4628 163.367 9.06764C164.199 8.67248 165.152 8.4749 166.225 8.4749C167.17 8.4749 168.045 8.6372 168.85 8.9618C169.654 9.28639 170.345 9.74506 170.924 10.3378C171.517 10.9305 171.961 11.6432 172.258 12.4759L169.59 13.6825C169.294 12.9487 168.85 12.3771 168.257 11.9678C167.664 11.5444 166.987 11.3327 166.225 11.3327C165.787 11.3327 165.399 11.4033 165.06 11.5444C164.722 11.6856 164.46 11.8902 164.277 12.1583C164.094 12.4124 164.002 12.7087 164.002 13.0475C164.002 13.4144 164.122 13.739 164.362 14.0212C164.602 14.2894 164.961 14.5011 165.441 14.6563L168.468 15.6301C169.739 16.0394 170.684 16.6109 171.305 17.3448C171.94 18.0787 172.258 18.9748 172.258 20.0333C172.258 20.9506 172.018 21.7692 171.538 22.4889C171.058 23.1946 170.395 23.752 169.548 24.1613C168.715 24.5565 167.742 24.754 166.627 24.754Z" fill="#111010"/>
</svg>
