<svg width="140" height="32" viewBox="0 0 140 32" fill="none" xmlns="http://www.w3.org/2000/svg">
<path d="M11.8296 6L2 11.5537V16.3498L11.8296 10.7961H18V6H11.8296Z" fill="#111010"/>
<path d="M11.8296 22.2039L2 16.6502V21.4463L11.8296 27V22.2039Z" fill="#111010"/>
<path d="M20.1704 27L30 21.4463L30 16.6502L20.1704 22.2039H14L14 27L20.1704 27Z" fill="#111010"/>
<path d="M20.1704 10.7961L30 16.3498L30 11.5537L20.1704 6L20.1704 10.7961Z" fill="#111010"/>
<path d="M42.7466 24C41.6469 24 40.6238 23.7989 39.6772 23.3966C38.7445 22.9944 37.9232 22.4395 37.2133 21.7321C36.5173 21.0108 35.9744 20.1647 35.5846 19.1938C35.1949 18.2228 35 17.1547 35 15.9896C35 14.8383 35.1879 13.7772 35.5638 12.8062C35.9535 11.8214 36.4964 10.9753 37.1924 10.2679C37.8884 9.5466 38.7028 8.99176 39.6354 8.60338C40.5681 8.20113 41.5912 8 42.7048 8C43.8045 8 44.7859 8.18726 45.649 8.56177C46.5259 8.93628 47.2637 9.4287 47.8623 10.039C48.4609 10.6355 48.8924 11.2874 49.1569 11.9948L46.9644 13.0559C46.6443 12.2098 46.1153 11.5301 45.3775 11.0169C44.6398 10.4898 43.7489 10.2263 42.7048 10.2263C41.6747 10.2263 40.763 10.469 39.9695 10.9545C39.1761 11.44 38.5566 12.1127 38.1112 12.9727C37.6796 13.8327 37.4639 14.8383 37.4639 15.9896C37.4639 17.1409 37.6866 18.1534 38.132 19.0273C38.5914 19.8873 39.2178 20.56 40.0113 21.0455C40.8047 21.5171 41.7165 21.7529 42.7466 21.7529C43.6097 21.7529 44.3961 21.5795 45.1061 21.2328C45.8299 20.8721 46.4076 20.3728 46.8391 19.7347C47.2707 19.0828 47.4864 18.3268 47.4864 17.4668V16.4057L48.5931 17.4044H42.7048V15.3238H49.9294V16.7802C49.9294 17.9176 49.7346 18.9371 49.3448 19.8388C48.955 20.7265 48.4261 21.4824 47.7579 22.1066C47.0897 22.7308 46.3241 23.2024 45.461 23.5215C44.598 23.8405 43.6932 24 42.7466 24Z" fill="#111010"/>
<path d="M50.9103 23.7503V8H53.2698V23.7503H50.9103Z" fill="#111010"/>
<path d="M60.1732 24C59.0874 24 58.0921 23.7434 57.1873 23.2302C56.2964 22.7169 55.5865 22.0165 55.0575 21.1287C54.5285 20.241 54.2641 19.2354 54.2641 18.1118C54.2641 16.9744 54.5285 15.9688 55.0575 15.0949C55.5865 14.2072 56.2964 13.5137 57.1873 13.0143C58.0782 12.5011 59.0735 12.2445 60.1732 12.2445C61.2868 12.2445 62.2821 12.5011 63.1591 13.0143C64.05 13.5137 64.7529 14.2072 65.268 15.0949C65.797 15.9688 66.0614 16.9744 66.0614 18.1118C66.0614 19.2492 65.797 20.2618 65.268 21.1495C64.739 22.0373 64.0291 22.7378 63.1382 23.251C62.2473 23.7503 61.259 24 60.1732 24ZM60.1732 21.8153C60.8414 21.8153 61.433 21.6558 61.948 21.3368C62.4631 21.0178 62.8668 20.5808 63.1591 20.026C63.4653 19.4573 63.6185 18.8192 63.6185 18.1118C63.6185 17.4044 63.4653 16.7733 63.1591 16.2185C62.8668 15.6636 62.4631 15.2267 61.948 14.9077C61.433 14.5886 60.8414 14.4291 60.1732 14.4291C59.5189 14.4291 58.9273 14.5886 58.3984 14.9077C57.8833 15.2267 57.4727 15.6636 57.1664 16.2185C56.8741 16.7733 56.7279 17.4044 56.7279 18.1118C56.7279 18.8192 56.8741 19.4573 57.1664 20.026C57.4727 20.5808 57.8833 21.0178 58.3984 21.3368C58.9273 21.6558 59.5189 21.8153 60.1732 21.8153Z" fill="#111010"/>
<path d="M73.0944 24C72.2174 24 71.417 23.8197 70.6931 23.459C69.9832 23.0984 69.4333 22.5782 69.0436 21.8986L69.315 21.4616V23.7503H67.06V8H69.4194V14.8244L69.0436 14.2835C69.4612 13.6454 70.018 13.1461 70.714 12.7854C71.41 12.4248 72.2035 12.2445 73.0944 12.2445C74.1662 12.2445 75.1267 12.5011 75.9759 13.0143C76.8389 13.5275 77.514 14.228 78.0012 15.1157C78.5024 16.0035 78.7529 17.0022 78.7529 18.1118C78.7529 19.2215 78.5024 20.2202 78.0012 21.1079C77.514 21.9957 76.8459 22.7031 75.9967 23.2302C75.1476 23.7434 74.1801 24 73.0944 24ZM72.8647 21.8153C73.5329 21.8153 74.1245 21.6558 74.6395 21.3368C75.1546 21.0178 75.5582 20.5808 75.8506 20.026C76.1568 19.4573 76.3099 18.8192 76.3099 18.1118C76.3099 17.4044 76.1568 16.7733 75.8506 16.2185C75.5582 15.6636 75.1546 15.2267 74.6395 14.9077C74.1245 14.5886 73.5329 14.4291 72.8647 14.4291C72.2104 14.4291 71.6188 14.5886 71.0899 14.9077C70.5748 15.2267 70.1642 15.6636 69.8579 16.2185C69.5656 16.7733 69.4194 17.4044 69.4194 18.1118C69.4194 18.8192 69.5656 19.4573 69.8579 20.026C70.1642 20.5808 70.5748 21.0178 71.0899 21.3368C71.6188 21.6558 72.2104 21.8153 72.8647 21.8153Z" fill="#111010"/>
<path d="M83.1257 24C82.3601 24 81.685 23.8682 81.1003 23.6047C80.5296 23.3273 80.0842 22.9528 79.764 22.4811C79.4438 21.9957 79.2837 21.427 79.2837 20.775C79.2837 20.1647 79.416 19.6168 79.6805 19.1313C79.9589 18.6459 80.3834 18.2367 80.9542 17.9038C81.5249 17.5709 82.2418 17.3351 83.1049 17.1964L87.0304 16.5514V18.4031L83.5642 19.0065C82.9378 19.1175 82.4784 19.3186 82.1861 19.6099C81.8938 19.8873 81.7476 20.2479 81.7476 20.6918C81.7476 21.1218 81.9077 21.4755 82.2279 21.7529C82.562 22.0165 82.9865 22.1482 83.5016 22.1482C84.1419 22.1482 84.6987 22.0095 85.172 21.7321C85.6592 21.4547 86.0351 21.0871 86.2995 20.6294C86.564 20.1578 86.6963 19.6376 86.6963 19.0689V16.1769C86.6963 15.622 86.4875 15.1712 86.0699 14.8244C85.6662 14.4638 85.1233 14.2835 84.4412 14.2835C83.8148 14.2835 83.2649 14.4499 82.7916 14.7828C82.3323 15.1019 81.9912 15.518 81.7685 16.0312L79.8058 15.0533C80.0146 14.4985 80.3556 14.013 80.8289 13.5969C81.3022 13.1669 81.852 12.834 82.4784 12.5982C83.1188 12.3624 83.7939 12.2445 84.5038 12.2445C85.3947 12.2445 86.1812 12.4109 86.8633 12.7438C87.5593 13.0767 88.0952 13.5414 88.4711 14.1378C88.8609 14.7204 89.0557 15.4001 89.0557 16.1769V23.7503H86.8007V21.7113L87.2809 21.7737C87.0164 22.2315 86.6754 22.6268 86.2578 22.9597C85.8541 23.2926 85.3878 23.5492 84.8588 23.7295C84.3438 23.9098 83.7661 24 83.1257 24Z" fill="#111010"/>
<path d="M90.5095 23.7503V8H92.869V23.7503H90.5095Z" fill="#111010"/>
<path d="M99.6889 24C98.5614 24 97.5591 23.7434 96.6821 23.2302C95.8191 22.7031 95.13 21.9957 94.615 21.1079C94.1138 20.2202 93.8633 19.2146 93.8633 18.091C93.8633 16.9814 94.1138 15.9827 94.615 15.0949C95.1161 14.2072 95.8051 13.5137 96.6821 13.0143C97.5591 12.5011 98.5614 12.2445 99.6889 12.2445C100.454 12.2445 101.171 12.3832 101.84 12.6606C102.508 12.9241 103.085 13.2917 103.573 13.7633C104.074 14.2349 104.443 14.7828 104.679 15.407L102.612 16.3641C102.375 15.7815 101.993 15.3169 101.464 14.9701C100.949 14.6094 100.357 14.4291 99.6889 14.4291C99.0486 14.4291 98.4709 14.5886 97.9558 14.9077C97.4547 15.2128 97.058 15.6498 96.7656 16.2185C96.4733 16.7733 96.3272 17.4044 96.3272 18.1118C96.3272 18.8192 96.4733 19.4573 96.7656 20.026C97.058 20.5808 97.4547 21.0178 97.9558 21.3368C98.4709 21.6558 99.0486 21.8153 99.6889 21.8153C100.371 21.8153 100.963 21.642 101.464 21.2952C101.979 20.9345 102.362 20.456 102.612 19.8596L104.679 20.8375C104.457 21.4339 104.095 21.9749 103.594 22.4603C103.106 22.9319 102.529 23.3065 101.86 23.5839C101.192 23.8613 100.468 24 99.6889 24Z" fill="#111010"/>
<path d="M105.68 23.7503V8H108.04V14.6996L107.664 14.4083C107.942 13.7009 108.388 13.1669 109 12.8062C109.613 12.4317 110.323 12.2445 111.13 12.2445C111.965 12.2445 112.703 12.4248 113.343 12.7854C113.984 13.1461 114.485 13.6454 114.847 14.2835C115.209 14.9215 115.39 15.6498 115.39 16.4681V23.7503H113.051V17.1131C113.051 16.5444 112.94 16.0659 112.717 15.6775C112.508 15.2752 112.216 14.9701 111.84 14.762C111.464 14.5401 111.033 14.4291 110.546 14.4291C110.072 14.4291 109.641 14.5401 109.251 14.762C108.875 14.9701 108.576 15.2752 108.353 15.6775C108.144 16.0798 108.04 16.5583 108.04 17.1131V23.7503H105.68Z" fill="#111010"/>
<path d="M119.993 24C119.227 24 118.552 23.8682 117.967 23.6047C117.396 23.3273 116.951 22.9528 116.631 22.4811C116.311 21.9957 116.151 21.427 116.151 20.775C116.151 20.1647 116.283 19.6168 116.547 19.1313C116.826 18.6459 117.25 18.2367 117.821 17.9038C118.392 17.5709 119.109 17.3351 119.972 17.1964L123.897 16.5514V18.4031L120.431 19.0065C119.805 19.1175 119.345 19.3186 119.053 19.6099C118.761 19.8873 118.614 20.2479 118.614 20.6918C118.614 21.1218 118.775 21.4755 119.095 21.7529C119.429 22.0165 119.853 22.1482 120.368 22.1482C121.009 22.1482 121.566 22.0095 122.039 21.7321C122.526 21.4547 122.902 21.0871 123.166 20.6294C123.431 20.1578 123.563 19.6376 123.563 19.0689V16.1769C123.563 15.622 123.354 15.1712 122.937 14.8244C122.533 14.4638 121.99 14.2835 121.308 14.2835C120.682 14.2835 120.132 14.4499 119.658 14.7828C119.199 15.1019 118.858 15.518 118.635 16.0312L116.673 15.0533C116.881 14.4985 117.222 14.013 117.696 13.5969C118.169 13.1669 118.719 12.834 119.345 12.5982C119.986 12.3624 120.661 12.2445 121.371 12.2445C122.262 12.2445 123.048 12.4109 123.73 12.7438C124.426 13.0767 124.962 13.5414 125.338 14.1378C125.728 14.7204 125.923 15.4001 125.923 16.1769V23.7503H123.668V21.7113L124.148 21.7737C123.883 22.2315 123.542 22.6268 123.125 22.9597C122.721 23.2926 122.255 23.5492 121.726 23.7295C121.211 23.9098 120.633 24 119.993 24Z" fill="#111010"/>
<path d="M127.376 23.7503V12.4941H129.631V14.762L129.423 14.4291C129.673 13.694 130.077 13.1669 130.634 12.8479C131.191 12.515 131.859 12.3485 132.638 12.3485H133.327V14.4915H132.346C131.566 14.4915 130.933 14.7343 130.446 15.2198C129.972 15.6914 129.736 16.371 129.736 17.2588V23.7503H127.376Z" fill="#111010"/>
<path d="M138.726 23.8752C137.543 23.8752 136.624 23.5423 135.97 22.8765C135.316 22.2107 134.989 21.2744 134.989 20.0676V14.6164H133.005V12.4941H133.318C133.847 12.4941 134.258 12.3416 134.55 12.0364C134.843 11.7313 134.989 11.3151 134.989 10.788V9.91417H137.348V12.4941H139.916V14.6164H137.348V19.9636C137.348 20.352 137.411 20.6849 137.536 20.9623C137.661 21.2258 137.863 21.4339 138.142 21.5865C138.42 21.7252 138.782 21.7945 139.227 21.7945C139.339 21.7945 139.464 21.7876 139.603 21.7737C139.742 21.7599 139.875 21.746 140 21.7321V23.7503C139.805 23.7781 139.589 23.8058 139.353 23.8335C139.116 23.8613 138.907 23.8752 138.726 23.8752Z" fill="#111010"/>
</svg>
