<svg width="173" height="33" viewBox="0 0 173 33" fill="none" xmlns="http://www.w3.org/2000/svg">
<path d="M2 21C2 18.7909 3.79086 17 6 17C8.20914 17 10 18.7909 10 21C10 23.2091 8.20914 25 6 25C3.79086 25 2 23.2091 2 21Z" fill="#111010"/>
<path d="M12 15C12 12.7909 13.7909 11 16 11C18.2091 11 20 12.7909 20 15V21C20 23.2091 18.2091 25 16 25C13.7909 25 12 23.2091 12 21V15Z" fill="#111010"/>
<path d="M12 14C12 11.7909 13.7909 10 16 10C18.2091 10 20 11.7909 20 14C20 16.2091 18.2091 18 16 18C13.7909 18 12 16.2091 12 14Z" fill="#111010"/>
<path d="M22 10C22 7.79086 23.7909 6 26 6C28.2091 6 30 7.79086 30 10V21C30 23.2091 28.2091 25 26 25C23.7909 25 22 23.2091 22 21V10Z" fill="#111010"/>
<path d="M22 10C22 7.79086 23.7909 6 26 6C28.2091 6 30 7.79086 30 10C30 12.2091 28.2091 14 26 14C23.7909 14 22 12.2091 22 10Z" fill="#111010"/>
<path d="M40.2432 26.5V7.42801H43.5712L50.7136 17.1304H49.1264L56.1152 7.42801H59.4432V26.5H55.936V11.396L57.2928 11.7288L50.048 21.38H49.6384L42.5728 11.7288L43.7248 11.396V26.5H40.2432ZM65.4356 26.8072C64.4628 26.8072 63.618 26.6451 62.9012 26.3208C62.1844 25.9965 61.6298 25.5357 61.2372 24.9384C60.8447 24.324 60.6484 23.6157 60.6484 22.8136C60.6484 22.0456 60.8191 21.3629 61.1604 20.7656C61.5018 20.1512 62.0308 19.6392 62.7476 19.2296C63.4644 18.82 64.369 18.5299 65.4612 18.3592L70.018 17.6168V20.1768L66.1012 20.8424C65.4356 20.9619 64.9407 21.1752 64.6164 21.4824C64.2922 21.7896 64.13 22.1907 64.13 22.6856C64.13 23.1635 64.3092 23.5475 64.6676 23.8376C65.0431 24.1107 65.5039 24.2472 66.05 24.2472C66.7498 24.2472 67.3642 24.1021 67.8932 23.812C68.4394 23.5048 68.8575 23.0867 69.1476 22.5576C69.4548 22.0285 69.6084 21.4483 69.6084 20.8168V17.2328C69.6084 16.6355 69.3695 16.1405 68.8916 15.748C68.4308 15.3384 67.8164 15.1336 67.0484 15.1336C66.3316 15.1336 65.6916 15.3299 65.1284 15.7224C64.5823 16.0979 64.1812 16.6013 63.9252 17.2328L61.186 15.9016C61.4591 15.1677 61.8858 14.5363 62.466 14.0072C63.0634 13.4611 63.7631 13.0344 64.5652 12.7272C65.3674 12.42 66.2378 12.2664 67.1764 12.2664C68.3199 12.2664 69.3268 12.4797 70.1972 12.9064C71.0676 13.316 71.7418 13.8963 72.2196 14.6472C72.7146 15.3811 72.962 16.2429 72.962 17.2328V26.5H69.7876V24.1192L70.5044 24.068C70.146 24.6653 69.7194 25.1688 69.2244 25.5784C68.7295 25.9709 68.1663 26.2781 67.5348 26.5C66.9034 26.7048 66.2036 26.8072 65.4356 26.8072ZM74.4616 26.5V12.5736H77.6104V15.6712L77.3544 15.2104C77.6787 14.1693 78.1822 13.444 78.8648 13.0344C79.5645 12.6248 80.4008 12.42 81.3736 12.42H82.1928V15.3896H80.9896C80.0339 15.3896 79.2659 15.6883 78.6856 16.2856C78.1054 16.8659 77.8152 17.6851 77.8152 18.7432V26.5H74.4616ZM82.4366 26.5V7.12081H85.7902V19.8184L84.5102 19.4344L91.0638 12.5736H95.2366L90.091 18.18L95.339 26.5H91.499L86.9422 19.2808L88.939 18.8712L84.7406 23.3768L85.7902 21.3288V26.5H82.4366ZM101.966 26.8072C100.533 26.8072 99.2784 26.4829 98.2032 25.8344C97.128 25.1859 96.2917 24.3069 95.6944 23.1976C95.0971 22.0883 94.7984 20.8595 94.7984 19.5112C94.7984 18.1117 95.0971 16.8744 95.6944 15.7992C96.3088 14.7069 97.1365 13.8451 98.1776 13.2136C99.2357 12.5821 100.413 12.2664 101.71 12.2664C102.803 12.2664 103.758 12.4456 104.578 12.804C105.414 13.1624 106.122 13.6573 106.702 14.2888C107.283 14.9203 107.726 15.6456 108.034 16.4648C108.341 17.2669 108.494 18.1373 108.494 19.076C108.494 19.3149 108.477 19.5624 108.443 19.8184C108.426 20.0744 108.383 20.2963 108.315 20.484H97.5632V17.924H106.421L104.834 19.1272C104.987 18.3421 104.945 17.6424 104.706 17.028C104.484 16.4136 104.108 15.9272 103.579 15.5688C103.067 15.2104 102.444 15.0312 101.71 15.0312C101.011 15.0312 100.388 15.2104 99.8416 15.5688C99.2955 15.9101 98.8773 16.4221 98.5872 17.1048C98.3141 17.7704 98.2117 18.5811 98.28 19.5368C98.2117 20.3901 98.3227 21.1496 98.6128 21.8152C98.92 22.4637 99.3637 22.9672 99.944 23.3256C100.541 23.684 101.224 23.8632 101.992 23.8632C102.76 23.8632 103.409 23.7011 103.938 23.3768C104.484 23.0525 104.91 22.6173 105.218 22.0712L107.931 23.4024C107.658 24.068 107.231 24.6568 106.651 25.1688C106.071 25.6808 105.38 26.0819 104.578 26.372C103.793 26.6621 102.922 26.8072 101.966 26.8072ZM115.785 26.6536C114.215 26.6536 112.995 26.2269 112.125 25.3736C111.271 24.5032 110.845 23.2829 110.845 21.7128V15.5688H108.438V12.5736H108.694C109.377 12.5736 109.906 12.3944 110.281 12.036C110.657 11.6776 110.845 11.1571 110.845 10.4744V9.39921H114.198V12.5736H117.398V15.5688H114.198V21.5336C114.198 21.9944 114.275 22.3869 114.429 22.7112C114.599 23.0355 114.855 23.2829 115.197 23.4536C115.555 23.6243 116.007 23.7096 116.553 23.7096C116.673 23.7096 116.809 23.7011 116.963 23.684C117.134 23.6669 117.296 23.6499 117.449 23.6328V26.5C117.21 26.5341 116.937 26.5683 116.63 26.6024C116.323 26.6365 116.041 26.6536 115.785 26.6536ZM125.503 26.8072C124.291 26.8072 123.165 26.5853 122.124 26.1416C121.1 25.6979 120.212 25.0835 119.461 24.2984C118.727 23.4963 118.19 22.5661 117.848 21.508L120.741 20.2536C121.202 21.3459 121.868 22.2077 122.738 22.8392C123.608 23.4536 124.59 23.7608 125.682 23.7608C126.296 23.7608 126.825 23.6669 127.269 23.4792C127.73 23.2744 128.08 23.0013 128.319 22.66C128.575 22.3187 128.703 21.9091 128.703 21.4312C128.703 20.868 128.532 20.4072 128.191 20.0488C127.867 19.6733 127.372 19.3832 126.706 19.1784L123.045 18.0008C121.56 17.54 120.443 16.8488 119.692 15.9272C118.941 15.0056 118.565 13.9219 118.565 12.676C118.565 11.5837 118.83 10.6195 119.359 9.78321C119.905 8.94695 120.656 8.29841 121.612 7.83761C122.584 7.35975 123.694 7.12081 124.94 7.12081C126.083 7.12081 127.133 7.32561 128.088 7.73521C129.044 8.12775 129.863 8.68241 130.546 9.39921C131.246 10.0989 131.766 10.9267 132.108 11.8824L129.24 13.1624C128.865 12.2067 128.302 11.4728 127.551 10.9608C126.8 10.4317 125.929 10.1672 124.94 10.1672C124.359 10.1672 123.847 10.2696 123.404 10.4744C122.96 10.6621 122.61 10.9352 122.354 11.2936C122.115 11.6349 121.996 12.0445 121.996 12.5224C121.996 13.0515 122.166 13.5208 122.508 13.9304C122.849 14.3229 123.369 14.6301 124.069 14.852L127.576 15.9528C129.095 16.4477 130.23 17.1304 130.981 18.0008C131.749 18.8712 132.133 19.9464 132.133 21.2264C132.133 22.3187 131.852 23.2829 131.288 24.1192C130.725 24.9555 129.949 25.6125 128.959 26.0904C127.969 26.5683 126.817 26.8072 125.503 26.8072ZM137.486 26.8072C136.513 26.8072 135.668 26.6451 134.951 26.3208C134.234 25.9965 133.68 25.5357 133.287 24.9384C132.895 24.324 132.698 23.6157 132.698 22.8136C132.698 22.0456 132.869 21.3629 133.21 20.7656C133.552 20.1512 134.081 19.6392 134.798 19.2296C135.514 18.82 136.419 18.5299 137.511 18.3592L142.068 17.6168V20.1768L138.151 20.8424C137.486 20.9619 136.991 21.1752 136.666 21.4824C136.342 21.7896 136.18 22.1907 136.18 22.6856C136.18 23.1635 136.359 23.5475 136.718 23.8376C137.093 24.1107 137.554 24.2472 138.1 24.2472C138.8 24.2472 139.414 24.1021 139.943 23.812C140.489 23.5048 140.907 23.0867 141.198 22.5576C141.505 22.0285 141.658 21.4483 141.658 20.8168V17.2328C141.658 16.6355 141.419 16.1405 140.942 15.748C140.481 15.3384 139.866 15.1336 139.098 15.1336C138.382 15.1336 137.742 15.3299 137.178 15.7224C136.632 16.0979 136.231 16.6013 135.975 17.2328L133.236 15.9016C133.509 15.1677 133.936 14.5363 134.516 14.0072C135.113 13.4611 135.813 13.0344 136.615 12.7272C137.417 12.42 138.288 12.2664 139.226 12.2664C140.37 12.2664 141.377 12.4797 142.247 12.9064C143.118 13.316 143.792 13.8963 144.27 14.6472C144.765 15.3811 145.012 16.2429 145.012 17.2328V26.5H141.838V24.1192L142.554 24.068C142.196 24.6653 141.769 25.1688 141.274 25.5784C140.779 25.9709 140.216 26.2781 139.585 26.5C138.953 26.7048 138.254 26.8072 137.486 26.8072ZM150.46 26.5L144.982 12.5736H148.642L152.61 23.5304H151.254L155.247 12.5736H158.908L153.43 26.5H150.46ZM160.851 32.1576C160.476 32.1576 160.109 32.1235 159.75 32.0552C159.392 32.004 159.068 31.9101 158.778 31.7736V28.9576C158.999 29.0088 159.264 29.06 159.571 29.1112C159.895 29.1624 160.194 29.188 160.467 29.188C161.235 29.188 161.79 29.0088 162.131 28.6504C162.49 28.292 162.805 27.8227 163.078 27.2424L164 25.092L163.949 27.908L157.882 12.5736H161.491L165.741 23.8888H164.461L168.685 12.5736H172.32L166.253 27.908C165.894 28.8125 165.459 29.5805 164.947 30.212C164.435 30.8435 163.838 31.3213 163.155 31.6456C162.49 31.9869 161.722 32.1576 160.851 32.1576Z" fill="#111010"/>
</svg>
