<svg width="65" height="65" viewBox="0 0 65 65" fill="none" xmlns="http://www.w3.org/2000/svg">
<path d="M32.5093 3.20713C48.6662 3.20713 61.8114 16.3523 61.8114 32.5093C61.8114 48.6662 48.6662 61.8114 32.5093 61.8114C16.3523 61.8114 3.20713 48.6662 3.20713 32.5093C3.20713 16.3523 16.3523 3.20713 32.5093 3.20713ZM32.5093 0.762194C14.975 0.762194 0.762194 14.975 0.762194 32.5093C0.762194 50.0436 14.9769 64.2563 32.5093 64.2563C50.0416 64.2563 64.2563 50.0416 64.2563 32.5093C64.2563 14.9769 50.0416 0.762194 32.5093 0.762194Z" fill="#C09E3A" stroke="#C09E3A" stroke-width="0.475611"/>
<g clip-path="url(#clip0_738_26958)">
<path d="M37.2374 33.0767L34.7509 35.5716C33.7425 36.5835 31.9684 36.6053 30.9382 35.5716L28.4516 33.0767L19.5206 42.0366C19.8531 42.1903 20.2196 42.2821 20.6093 42.2821H45.0798C45.4695 42.2821 45.8359 42.1904 46.1682 42.0367L37.2374 33.0767Z" fill="#C09E3A"/>
<path d="M45.08 21.4067H20.6094C20.2197 21.4067 19.8532 21.4985 19.5209 21.6522L29.0642 31.2272C29.0649 31.2278 29.0656 31.228 29.0662 31.2286C29.0669 31.2292 29.067 31.2301 29.067 31.2301L32.1701 34.3434C32.4997 34.673 33.1898 34.673 33.5194 34.3434L36.6218 31.2306C36.6218 31.2306 36.6226 31.2292 36.6232 31.2286C36.6232 31.2286 36.6246 31.2278 36.6253 31.2272L46.1684 21.6521C45.8361 21.4984 45.4696 21.4067 45.08 21.4067Z" fill="#C09E3A"/>
<path d="M18.2773 22.8691C18.1053 23.2169 17.9998 23.603 17.9998 24.0166V39.6731C17.9998 40.0867 18.1052 40.4727 18.2772 40.8206L27.2236 31.8451L18.2773 22.8691Z" fill="#C09E3A"/>
<path d="M47.4118 22.8691L38.4655 31.8453L47.4118 40.8208C47.5837 40.473 47.6893 40.0869 47.6893 39.6732V24.0167C47.6893 23.603 47.5837 23.2169 47.4118 22.8691Z" fill="#C09E3A"/>
</g>
<defs>
<clipPath id="clip0_738_26958">
<rect width="29.6894" height="29.6894" fill="white" transform="translate(18 17)"/>
</clipPath>
</defs>
</svg>
