<svg width="185" height="36" viewBox="0 0 185 36" fill="none" xmlns="http://www.w3.org/2000/svg">
<g opacity="0.5">
<path d="M6.79102 9.39844L15.9395 26.0953L26.1028 9.39844H22.676L16.041 20.2799L10.2178 9.39844H6.79102Z" fill="white"/>
<path d="M13.6603 18.6719L9.14071 26.0953L0 9.39844H3.41899L9.24219 20.2799L12.0367 15.6978L13.6603 18.6719Z" fill="white"/>
<path d="M14.0898 12.3335L15.8852 9.39844H19.312L15.6354 15.4324L14.0898 12.3335Z" fill="white"/>
<path d="M34.4862 0H34.3379V35.4935H34.4862V0Z" fill="white"/>
<path d="M69.7764 25.3923V10.0928H71.5873V16.8215H79.846V10.0928H81.657V25.3923H79.846V18.5544H71.5873V25.3923H69.7764Z" fill="white"/>
<path d="M87.7227 10.0928H89.5336V25.3923H87.7227V10.0928Z" fill="white"/>
<path d="M95.0908 25.3923V10.0928H98.6971C99.1889 10.0928 99.7431 10.1708 100.344 10.3191C100.945 10.4753 101.515 10.7172 102.038 11.0529C102.561 11.3886 102.998 11.8179 103.349 12.3409C103.701 12.8639 103.872 13.4961 103.872 14.2455C103.872 15.3383 103.599 16.2516 103.053 16.9854C102.506 17.7191 101.71 18.2031 100.656 18.4373L103.935 25.3845H101.968L98.7518 18.5622H96.894V25.3845H95.083L95.0908 25.3923ZM96.9018 16.8215H98.8064C99.4465 16.8215 99.9773 16.7356 100.391 16.5717C100.805 16.4077 101.14 16.197 101.382 15.9472C101.632 15.6974 101.804 15.4242 101.905 15.1198C102.007 14.8153 102.061 14.5187 102.061 14.2455C102.061 13.9255 101.976 13.6132 101.812 13.3166C101.648 13.02 101.421 12.7546 101.133 12.5282C100.852 12.3018 100.508 12.1223 100.102 11.9896C99.6963 11.8569 99.2748 11.7945 98.822 11.7945H96.9018V16.8215Z" fill="white"/>
<path d="M108.861 25.3923V10.0928H110.672V23.6672H118.587V25.3923H108.861Z" fill="white"/>
<path d="M146.385 10.0928H148.196V25.3923H146.385V10.0928Z" fill="white"/>
<path d="M168.022 10.0932V26.0953C166.141 24.097 164.275 22.1143 162.425 20.1472C160.575 18.1801 158.709 16.1974 156.828 14.1991C156.758 14.0976 156.688 14.0039 156.617 13.9181C156.547 13.8322 156.485 13.7385 156.407 13.637C156.422 13.7541 156.43 13.8712 156.438 13.9883C156.438 14.1054 156.454 14.2225 156.469 14.3396V25.4005H154.658V9.39844C156.539 11.4358 158.405 13.4575 160.255 15.4636C162.105 17.4697 163.971 19.4915 165.852 21.5288C165.922 21.6303 165.992 21.724 166.063 21.8098C166.125 21.8957 166.195 21.9894 166.273 22.0908C166.258 21.9737 166.25 21.8567 166.242 21.7396C166.234 21.6225 166.227 21.5054 166.211 21.3883V10.0854H168.022V10.0932Z" fill="white"/>
<path d="M173.744 10.0928H177.304C178.35 10.0928 179.341 10.2723 180.278 10.6314C181.207 10.9905 182.026 11.5056 182.729 12.1691C183.431 12.8405 183.978 13.6445 184.391 14.5812C184.797 15.5179 185 16.5795 185 17.7582C185 18.6168 184.852 19.4989 184.555 20.4044C184.259 21.3099 183.775 22.1295 183.103 22.8632C182.432 23.597 181.566 24.2058 180.488 24.6742C179.419 25.1504 178.108 25.3845 176.562 25.3845H173.744V10.0928ZM175.555 11.8179V23.6438H177.085C177.944 23.6438 178.748 23.5033 179.489 23.2301C180.231 22.9569 180.879 22.5588 181.425 22.0358C181.972 21.5206 182.401 20.8961 182.713 20.178C183.025 19.4599 183.181 18.648 183.181 17.7426C183.181 16.8371 183.025 16.0253 182.713 15.2915C182.401 14.5656 181.972 13.9411 181.425 13.4259C180.879 12.9107 180.231 12.5126 179.489 12.2316C178.748 11.9584 177.944 11.8179 177.085 11.8179H175.555Z" fill="white"/>
<path d="M42.7295 9.52295L49.6065 25.3924L53.7046 13.785L57.7246 25.3924L64.5548 9.55417H62.6111L57.7324 21.1616L53.6421 9.52295L49.708 21.2084L44.6732 9.52295H42.7295Z" fill="white"/>
<path d="M118.993 9.52295L125.87 25.3924L129.968 13.785L133.988 25.3924L140.818 9.55417H138.875L133.988 21.1616L129.906 9.52295L125.972 21.2084L120.937 9.52295H118.993Z" fill="white"/>
</g>
</svg>
