<svg width="46" height="46" viewBox="0 0 46 46" fill="none" xmlns="http://www.w3.org/2000/svg">
<path d="M34.1275 14.8905C33.2977 15.3822 32.3906 15.7297 31.4447 15.9184C30.6408 15.0753 29.5258 14.5996 28.361 14.6027C26.0662 14.5854 24.1859 16.4198 24.1465 18.7143C24.1475 19.0328 24.1854 19.3502 24.2596 19.66C20.88 19.5005 17.7237 17.926 15.5634 15.3222C15.1939 15.9449 14.9953 16.6541 14.9878 17.3781C14.9879 18.7741 15.6963 20.0746 16.8689 20.8319C16.1993 20.81 15.5442 20.6305 14.957 20.3076C14.957 20.3076 14.957 20.3076 14.957 20.359C14.9503 22.364 16.3702 24.0904 18.3389 24.4706C17.7183 24.6361 17.0685 24.6606 16.4372 24.5426C17.0048 26.241 18.5836 27.3952 20.3741 27.4208C18.8835 28.5799 17.0508 29.2125 15.1626 29.2197C14.8191 29.2193 14.4758 29.1987 14.1348 29.158C16.0692 30.3816 18.3114 31.0305 20.6004 31.0288C27.1278 31.148 32.516 25.9531 32.6353 19.4256C32.6365 19.3565 32.6372 19.2873 32.6372 19.218C32.6372 19.0399 32.6372 18.8617 32.6372 18.6835C33.4429 18.0931 34.1387 17.366 34.6931 16.5352C33.9214 16.8731 33.1039 17.0947 32.2672 17.193C33.1471 16.6779 33.8087 15.8592 34.1275 14.8905Z" fill="white" fill-opacity="0.5"/>
<path d="M23.3856 0.191406C10.8961 0.191406 0.771484 10.3161 0.771484 22.8055C0.771484 35.2949 10.8961 45.4195 23.3856 45.4195C35.875 45.4195 45.9996 35.2949 45.9996 22.8055C45.9996 10.3161 35.875 0.191406 23.3856 0.191406ZM23.3856 43.3637C12.0315 43.3637 2.82733 34.1595 2.82733 22.8055C2.82733 11.4514 12.0315 2.24725 23.3856 2.24725C34.7396 2.24725 43.9438 11.4514 43.9438 22.8055C43.9438 34.1595 34.7396 43.3637 23.3856 43.3637Z" fill="white" fill-opacity="0.5"/>
</svg>
