<svg width="35" height="36" viewBox="0 0 35 36" fill="none" xmlns="http://www.w3.org/2000/svg">
<g opacity="0.5">
<path d="M25.8637 11.9978C25.2251 12.3761 24.527 12.6435 23.7991 12.7887C23.1805 12.14 22.3225 11.7738 21.4261 11.7762C19.6602 11.763 18.2132 13.1746 18.1829 14.9402C18.1837 15.1854 18.2128 15.4296 18.2699 15.668C15.6692 15.5452 13.2403 14.3337 11.5779 12.33C11.2936 12.8091 11.1408 13.3549 11.135 13.912C11.135 14.9863 11.6802 15.987 12.5826 16.5698C12.0672 16.553 11.5631 16.4148 11.1113 16.1664C11.1113 16.1664 11.1113 16.1664 11.1113 16.2059C11.1061 17.7488 12.1988 19.0774 13.7137 19.3699C13.2362 19.4973 12.7361 19.5162 12.2504 19.4253C12.6871 20.7323 13.9021 21.6205 15.2799 21.6402C14.1329 22.5322 12.7225 23.019 11.2695 23.0245C11.0051 23.0242 10.741 23.0084 10.4785 22.9771C11.9671 23.9187 13.6926 24.418 15.454 24.4167C20.4771 24.5085 24.6235 20.5107 24.7153 15.4877C24.7163 15.4344 24.7168 15.3812 24.7168 15.3279C24.7168 15.1908 24.7168 15.0537 24.7168 14.9166C25.3368 14.4622 25.8722 13.9027 26.2989 13.2634C25.705 13.5234 25.0759 13.6939 24.432 13.7696C25.1092 13.3732 25.6183 12.7431 25.8637 11.9978Z" fill="#C09E3A"/>
<path d="M17.5976 0.686035C7.98659 0.686035 0.195312 8.47731 0.195312 18.0884C0.195312 27.6994 7.98659 35.4907 17.5976 35.4907C27.2087 35.4907 34.9999 27.6994 34.9999 18.0884C34.9999 8.47731 27.2087 0.686035 17.5976 0.686035ZM17.5976 33.9086C8.86031 33.9086 1.77736 26.8257 1.77736 18.0884C1.77736 9.35103 8.86031 2.26808 17.5976 2.26808C26.3349 2.26808 33.4179 9.35103 33.4179 18.0884C33.4179 26.8257 26.3349 33.9086 17.5976 33.9086Z" fill="#C09E3A"/>
</g>
</svg>
